/* XPM */
static char *d98fe6432bf94af7948f04b4d9a41a8aB4h0n7uowLBSRWGu[] = {
/* columns rows colors chars-per-pixel */
"64 64 179 2 ",
"   c #160906",
".  c #110F0C",
"X  c #15120F",
"o  c #1D110C",
"O  c #140F10",
"+  c #0F1213",
"@  c #131312",
"#  c #191513",
"$  c #1C1D19",
"%  c #23190E",
"&  c #211110",
"*  c #251917",
"=  c #2E1E1B",
"-  c #2A271E",
";  c #2F2621",
":  c #3D3530",
">  c #3D3E3C",
",  c #5E3722",
"<  c #59463F",
"1  c #654229",
"2  c #504841",
"3  c #50514F",
"4  c #4F5151",
"5  c #535453",
"6  c #6B584C",
"7  c #645351",
"8  c #625A50",
"9  c #725C51",
"0  c #6D6155",
"q  c #646464",
"w  c #69696A",
"e  c #ED1C24",
"r  c #86573C",
"t  c #81736E",
"y  c #8F786A",
"u  c #977468",
"i  c #93867B",
"p  c #99897C",
"a  c #A3887A",
"s  c #FE9D4F",
"d  c #F69653",
"f  c #FD9355",
"g  c #F79852",
"h  c #FC9D56",
"j  c #FD9359",
"k  c #FD9E59",
"l  c #F7A557",
"z  c #FDA056",
"x  c #F7A55D",
"c  c #FDA259",
"v  c #FEAC5E",
"b  c #FCB15D",
"n  c #FEBC5F",
"m  c #EA9B62",
"M  c #F79D61",
"N  c #FB9B63",
"B  c #FA9C69",
"V  c #F79F71",
"C  c #FBA362",
"Z  c #FFA961",
"A  c #FEAC60",
"S  c #FDAE61",
"D  c #F7A768",
"F  c #FAA56C",
"G  c #FCAB6A",
"H  c #FEB062",
"J  c #FDB362",
"K  c #FEBA63",
"L  c #FBB469",
"P  c #FDBA6D",
"I  c #F7A074",
"U  c #FCA773",
"Y  c #FAAB71",
"T  c #F9A77B",
"R  c #FCAB7B",
"E  c #FBB575",
"W  c #FDBB71",
"Q  c #FDB27C",
"!  c #FCBA7D",
"~  c #FDC376",
"^  c #FEC77C",
"/  c #FFCA7D",
"(  c #888887",
")  c #AE8D82",
"_  c #AE978B",
"`  c #B59A8F",
"'  c #B89C92",
"]  c #C29586",
"[  c #DAA997",
"{  c #DCB099",
"}  c #FAAA83",
"|  c #FDAD8C",
" . c #FCB384",
".. c #FBB48C",
"X. c #FCBC8D",
"o. c #E4AE9A",
"O. c #EEB396",
"+. c #E4B49C",
"@. c #EEB49B",
"#. c #EEB99D",
"$. c #F3B496",
"%. c #F6B997",
"&. c #F8B895",
"*. c #F2B299",
"=. c #F9BD9C",
"-. c #CAACA2",
";. c #DBBBA9",
":. c #DFBCB2",
">. c #E5B3A3",
",. c #EEBAA3",
"<. c #F3BBA3",
"1. c #F3B8A4",
"2. c #FABFA5",
"3. c #E2BFB1",
"4. c #FECB80",
"5. c #FAC494",
"6. c #F6C399",
"7. c #FCC29D",
"8. c #ECC0A9",
"9. c #F5C1A7",
"0. c #F9C4A3",
"q. c #F9CCA6",
"w. c #F4C0AC",
"e. c #F8C6AE",
"r. c #F9CBAB",
"t. c #FDC7B1",
"y. c #F5CAB6",
"u. c #FDCBB4",
"i. c #F5CEBE",
"p. c #FCCEBC",
"a. c #FDD1B7",
"s. c #F7D2BC",
"d. c #FBD1BC",
"f. c #D3D3D1",
"g. c #F4CEC1",
"h. c #FBCEC1",
"j. c #EFD3C2",
"k. c #F5D2C4",
"l. c #FAD1C0",
"z. c #FADDCA",
"x. c #FADFCC",
"c. c #E3DFDF",
"v. c #EADFDE",
"b. c #F5DCD2",
"n. c #FBDCD6",
"m. c #F5DFDB",
"M. c #E7E2DB",
"N. c #E9E0DE",
"B. c #FBE3D6",
"V. c #F8E5DD",
"C. c #F2E8DE",
"Z. c #EADEE0",
"A. c #E5E3E3",
"S. c #EBE4E5",
"D. c #EAE7EA",
"F. c #EDECEC",
"G. c #EDEDED",
"H. c #EDECEE",
"J. c #F5E7E4",
"K. c #F4E9E7",
"L. c #FCEDE2",
"P. c #F3EBEA",
"I. c #FAECE9",
"U. c #EFF1EE",
"Y. c #FCF2ED",
"T. c #F8EDF0",
"R. c #EFF1F0",
"E. c #F1F0F1",
"W. c #F4F3F3",
"Q. c #FAF4F2",
"!. c #F7F8F6",
"~. c #FEF9F4",
"^. c #FEFAF5",
"/. c #FEFAF6",
"(. c #F5F6F8",
"). c #F9F7F8",
"_. c #FAF9F9",
"`. c #FDFDFD",
"'. c #FEFEFD",
/* pixels */
"A v Z Z h h z c z z z h z h z z z z A b d j j j f k k 0.e e e /././.e e /.^.^.^.^.^.! J b A v c f h h h l A G d f f f z z k f k ",
"v f f f f h h z A c z z z k h z z A b v j j j j U =.5.B.e e e e e e e e ).(.E.e e e s.6.v Z f f f x h h v v v f f f f c z h f k ",
"f f j x z x h c c z h z h h f h k H v g f f h k q.`.^.`.e e e e e e e e e e F.e e e (.^.j f f f h c h c H E k f f f k h v c h c ",
"h k k c z z h c h c z k h h z z v G c f f h x K.e e e `.e e `.e e e e e e e F.e e e `./.f k h h c c c v Z k f f f k k k v c h k ",
"h h z k k h z h h z z c c h h z v c j f z z C P.e e e _.e e e e e /.e e e e e _.`.`.`.`.=.Z c z c H A v c f f j k c k c z c z c ",
"z z h f f k z z v v H k h c h c A g f k z v e e e F.F.!.`.`.e e e `.e e e e e `.e e e `.`. .v G b H c h f j f h z z z l c c h z ",
"v v c k z z l v v v z f c z z z h f z l z 7.e e e F.e e e e e H.`.`.e e e e e `.e e e `.!. .c c f f f f j k k c z h h z h z z v ",
"x c h c c c ~ v k f f f h z z z h k z z z 0.D.D.D.D.e e e e e e e e F.E.e e e E.e e e E.V j j f f f h f c k k c z f f z z h v v ",
"z z z v Z Z Z f f f f c c Z c h z z c k h 0.S.e e D.F.e e e D.e e e D.D.e e e e e e D.S.x c c k k z h c c z h x c h z z z c v v ",
"z h v H x k j f f f k k c v c z h x z c c r.P.e e `.`.e e e `.e e e `.`.`.`.`.e e e `.`.L. .c k z z z k v l z z c z z c A P v b ",
"z l v h f f f f h k k c c c h z d f c c &.e e `.( q q q t g.i.i.i.i.s.l.g.g.s.i.g.i.i.u.Y c h h h h h c c c z c x z z v v L A H ",
"v v h f f f k k k k h z c h z z k f c C K.e e `.5 @ O $ : ,.,.*.{ +.#.#.@.O.O.@.#.,.o.o.k z z h f k z z c h h z z v v v H H v b ",
"v c f h k k h z h k h l c c v v z c z Z K.!.e e 5 @ X _ k.l.l.:.@ ` p.s.2.O.O.e.d.p.6 o z b l z k z c z x h z v b b J A b H c h ",
"Z f f h c c c h k f f z c k n n z z z G F.(.e e 3 * i ;.l.s.s.3.# ' d.h.<.*.O.<.<.p.6 & z n l z z z c c c v v b b b J v b c f f ",
"h f h z c c c k z h z z c c z s z z z G e e `.`.4 ; l.s.d.d.s.8.= ' s.d.2.*.*.O.*.p.9 = z z z z z z z v b A v ^ A H c Z f f j f ",
"g h z z z z k c z z z z c c z z z h l L e e e e 4 - j.p.d.s.s.l.k.g.h.g.<.@.O.O.*.p.i.g.z z z z z z c v A A A c C c f f f j j f ",
"h h z h z v v v Z v h c c h c h z z v v E s.e e 4 $ 5 -.d.d.d.s.d.y 7 7 ] *.$.$.1.6 8 6 v c c h z v v A g h j f j f f j f f f f ",
"z h v A A H b v A v A l c c c z z v b v h 7.e e 5 # o _ d.d.s.s.j.2 @ @ y +.+.>.>.o @ % v c z c v l k f f f f f f f f f j h h k ",
"z c A v H b v c k x k c h c c z c v c f f 0.e e e f.X _ d.d.l.:.@ O @ + # . . . . . @ @ # m k v l f f k h f h k c h h c c h h h ",
"v v b H v c f f f j f k h z h c c g f h k 0.e e e C.u [ w.p.l.y.a : @ @ 0 p a p i @ @ # x h C d f k h h c c z h c h z h k k k h ",
"W H v h k f f f k k k k z z z z z z z h h X.e e e z.%.&.#.d.d.p.g.<     ) p.h.u.e., 1 r h z h k x h z z z z z z c h h c c k f k ",
"P G c f f f k k z h h c z x z z h z h k h z C 6.Z h f R #.l.l.h.p.8.,.<.@.*.@.F s h h h z z c h z h z z z c c c z c z c k k h c ",
"A v f f f k k c k c h h z x L v A A Z Z c k k F h z h x G 2.2.2.<.1.O.@.O...N c c z h h h z c l z v v v K v H v l c c c c z h h ",
"h f f f f k k g c z z v b v P v k k f f j k c c z z h h C 1.>.*.*.*.*.O.*...k z z z z l v A v H b b L P v v v A v k h g h z c c ",
"g f f f k h k j h h z v A A g j j f f h k k c z X.b.C.I.Y./.l.O.*.*.*.*.*.,.V.m.m.m.E v ^ A v b v v Z A v f f h h f f h h z Z v ",
"j j j f c c k k c v K l k d j j f h h k h D  . .x.E.F.).`.`.L.B.B.b.b.B.b.V.W.(.(.P.q.5.5.D f f f j j f f f f f f k x z z z c h ",
"j j j c c k z z c L E f f f f f z l h k k =.A.A.!.`.F.!.`.`.`.`.`.E.P.`.`.`.`.`._.F.!.`.P.V j f f f f f j k k k h z c z h z h c ",
"f f f k c c c z v c g f f h k h l v z C b.W.`.`.U.P.F.!.`.`.`.`.`.E.E.e e `.`.`.`.F.(.`.F.C.B.k k k k k k k c c z z z z z v A A ",
"j f z z c k c h Z k j f x h h z c h z C M._.`.`.P.F.!.`.`.`.e e e e e e e `.`.`.`./.).(.!.P.V.h x c c v z l l c c l A v b b v A ",
"f f z h c z h x c j j k z h h c z c c G M.!.`.`.E.E.`.`.e e e e e e e `.`.`.`.`.`.`.E.H.`.(.V.v c A v v J v v A H A b v v b v H ",
"f k z z Z z z A j f h h h h z z c c A G N.!.`.`.E.P.`.`.`.`.`.`.e e e e e `.`.`.`.`.!.D.`.`.`.B.! b J b 4.H H / H v A K J A H 4.",
"k k c z h h v g k k h h h h h k c A Y %.E.`.`.`.W.F.`.`.`.`.`.`.`.E.e e e e e `.`.`.E.F.`.`.`.K.! A b v b v v A A v A A Z h h c ",
"z z c z v h v g c z k c k f h h c f 2.A.`.`.`.`.E.E.`.`.`.`.`.`.`.E.e e e e `.`.`.`._.H.`.`.`.F. .v v x f f f f j g j j j f j j ",
"z k h k k c h z c c h z k k z z h f q.A.`.`.`.`.E.H.`.`.`.`.`.e e e e e _.`.`.`.`.`.!.F.`.`._.P.R f f f j j f j j j f j f j f j ",
"k f g h k z c h h c h z h h z z x h q.A.`.`.`.W.E.E.`.`.`.`.e e e `.`.F./.`.`.`.`.`._._.E._.`.F.Y f f f f j f j j f j f j j j j ",
"c f h c z z z c z z c z z z h z h v q.S.`.`.`.H.H.H.`.`.`.`.e e e `.`.F.`.`.`.`.`.`.`.`.F.!.`.F.T f f f j f j j j j j j j j j j ",
"z z z z c z l c v v Z c k k z c v b q.M.`.`.`.H.E.F.F.!.`.`.`.e e e e F.(.`.`.`.`.`.`.`.F.!.`.`.I.B.j j j f f f j f f f j f f f ",
"c c z h z A A A h g f k h h v v v 5.z.!.`.`./.H.F.H.H.!.`.`.`.`.e e e F._.`.`.`.`.`.`.`.F._.`.`.W.I.f h k k k h k k k k f h z z ",
"z c z z v ~ Z g f f j x z v A A D v.R.`.`.`.`.F.H.R.H.!.`.`.`.e e e `.F./.`.`.`.`.`.`.`.D._.`.`.W.K.k c h c x h h h c z l z h z ",
"c x l v A c j j f h z h z v H h N Z.!.`.`.`._.F.F.H.H./.`.`.e e e `.`.F.`.`.`.`.`.`.`.`.D.!.`.`.(.J.k h k c v h h h c z c c z z ",
"c z v / A f j j k h c c c v g j N v.W.`.`.`.`.H.F.H.U.(.`.`.e `.`.`.`.F.`.`.`.`.`.`.`.`.F.!.`.`.!.K.c c z z x c k k c z c h z k ",
"z v H A f f f f c c k h v c f j N Z._.`.`.`.`.H.F.R.F.!.`.e e e `.`.`.F./.`.`.`.`.`.`.`.D.!.`.`.W.K.f c c z h z l l z x z x z z ",
"v b v h f f j k c c h c c f f j F Z.(.`.`.D.S.F.H.H.F._.`.`.e e e e e e e e `.`.`.`.`.`.F.).`.`.E.K.h k z v c b b v v A ~ A b n ",
"v J c f f f f k k c z v c k k h G v.E._.`.D.A.F.F.R.H._.`.`.`.`.`.`.`.e e e `.`.`.`.`.`.H.Q.Y.Y.V.n.h c v Z Z g h f f Z L A A v ",
"A Z k f f j j h z z z v f f h k L N.Q.`.`.D.S.U.F.H.R.!.`.`.`.`.`.e e e `.`.`.`.`.`.`.`.T.n.d.s.9.&.h c c f f j f f f f j f f f ",
"H Z f f f f c h z z l h f k z l H *.y.l.s.M B P.H.F.F.!.`.`.`.`.e e `.`.`.`.`.`.`.`.`.^.k c C u.p.a.&. .f f g k k f f f f f f f ",
"v f f f f h h c G z c g h h h v L =.t.u.&.k C P.F.F.H.`.`.`.`.`.e e e `.`.`.`.`.`.`.`./.c k U u.s.y.*.} f z c k k k k c k h f k ",
"f f f f f c z c c z k c h z x | <.p.h.2.k x C P.F.F.H./.`.`.`.`.e e e `.`.`.`.`.`.`.`./.k Q d.p.s.p.#.} k h h z c h z z z z z h ",
"f f f k k z z z h c z z h h A  .1.p.u.d.r.C C K.F.H.F.!.`.`.`.`.`.e `.`.`.`.`.`.`.`.`.^.k Q d.p.d.u.*.} c c z z c z z z z c z z ",
"f c c x c k c c z c z z h z A ..<.p.p.d.h.c C P.D.F.H.).`.`.`.`.`.e e e e e `.`.`.`.`.^.k G 7.u.u.t. .Y c h z z c z z z c z z h ",
"c c c k c c c v h h h z c v J X.1.p.d.d.d.c D P.F.F.H._.`.`.`.`.`.`.`.`.e e e `.`.`.`.^.k c z &.*...z z z z c c v A A G H c c z ",
"k k h c z c H c d z c z h l A Z B 1.1...C z L P.H.R.H.R.E.`.`.`.`.`.`.`.`.e e `.`.`.`.^.h k z c C Z z z c v A A A Z g k g g k k ",
"z c k c v v C f k h z z c v b v j | | R z z G P.R.F.F.F.U.`.`.`.`.`.`.`.`.e `.`.`.`.`./.c Z k z h z c v A A v x f f f f f h k c ",
"z h v v Z k f f k z z h c H Z j f j k k c v C K.F.F.F.F.U.`.`.`.`.`.`.`.`.e `.`.`.`.`./.c h k h z h A ~ H h f f f f k k c x z h ",
"z v v Z f f f k h h h x v J v f f j c h c A k A.D.U.F.F.F.`.`.`.`.`.`.`.`.`.`.`.`.`.`./.d h h x z v v H Z d j j f h h c c h f g ",
"Z x k f f g k c h z k v b H c f f k c c c c N Z.D.F.F.F.R.`.`.`.`.`.`.`.`.`.`.`.`.`.`.^.h z z z v v Z c j j d f k h k c k k h f ",
"g f f k k c z h z h c b b Z j f f c c z c k C Z.D.U.F.W.E.`.`.`.`.`.`.`.`.`.`.`.`.`.`./.c c c A v v k f j f k h h z c A z c k k ",
"k k k c h z z z c c v H v c f f f h z z h h C Z.D.F.F.H.H.`.`.`.`.`.`.`.`.`.`.`.`.`.`./.k c l v b Z j j j f j z h c c Z c c h f ",
"z z z z h c h z c A v W c f j j h h l A c h Z v.F.F.F.H.H.`.`.`.`.`.`.`.`.`.`.`.`.`.`.^.z v v b b l f f j f h z z c h h h z h h ",
"z z c z z z x v K b v v f j j f k z c h h h C Z.D.F.E.H.H.`.`.`.`.`.`.`.`.`.`.`.`.`.`.^.v K n v Z f f j j k z c c f g c z z z h ",
"z h z z c v L v A Z k f f j j f k h c h l c Z Z.D.U.F.F.E.`.`.`.`.`.`.`.`.`.`.`.`.`.`.^.v v v v g f f f f h z k k j g k h h z z ",
"c z c A v v P v k k j j j j f j k x v v A Z D N.D.U.F.U.H.`.`.`.`.`.`.`.`.`.`.`.`.`.`./.v b v c j f j j k h h c c c c z c z z v ",
"k v J K c h f f j f j f f h k x c H Z c f j M A.F.F.U.F.R.`.`.`.`.`.`.`.`.`.`.`.`.`.`.^.H J k f j j j f k z c c c h h c l A A v ",
"v v v c f f f f f f f f h c h c Z Z k f f k C J.w > > > 5 _.`.`.`.`.`.`.`.`.`.( > > > < b c d j j f f f k c c v c h x l v P Z c "
};
