/* XPM */
static char *cactus[] = {
/* columns rows colors chars-per-pixel */
"64 64 128 2 ",
"   c #0D0E0F",
".  c #150E09",
"X  c #151709",
"o  c #191A1A",
"O  c #201F0E",
"+  c #2A1D13",
"@  c #321F13",
"#  c #072804",
"$  c #162707",
"%  c #053903",
"&  c #1A3409",
"*  c #1D2015",
"=  c #223B0C",
"-  c #292617",
";  c #362516",
":  c #253E10",
">  c #3E301F",
",  c #1F1F20",
"<  c #252625",
"1  c #2B3624",
"2  c #32372C",
"3  c #3B3B38",
"4  c #442E1C",
"5  c #4A321E",
"6  c #50321C",
"7  c #463A23",
"8  c #5A3D24",
"9  c #403E39",
"0  c #1F4408",
"q  c #135305",
"w  c #1E431C",
"e  c #28490A",
"r  c #29510B",
"t  c #335B0E",
"y  c #23401C",
"u  c #374915",
"i  c #345712",
"p  c #0B6E04",
"a  c #136E06",
"s  c #0D7705",
"d  c #177606",
"f  c #1B6513",
"g  c #2C690C",
"h  c #3A670E",
"j  c #267A09",
"k  c #37770C",
"l  c #336815",
"z  c #367B11",
"x  c #384825",
"c  c #3D5229",
"v  c #3E403D",
"b  c #424618",
"n  c #455B16",
"m  c #406C0F",
"M  c #457C0E",
"N  c #476718",
"B  c #467913",
"V  c #51791E",
"C  c #5A4627",
"Z  c #595626",
"A  c #41433E",
"S  c #5A4B3D",
"D  c #6B482B",
"F  c #724A2D",
"G  c #69572B",
"H  c #6E4E36",
"J  c #784E30",
"K  c #785634",
"L  c #516620",
"P  c #4D7129",
"I  c #3F4140",
"U  c #494A47",
"Y  c #534D43",
"T  c #4F514D",
"R  c #52544E",
"E  c #575A53",
"W  c #5D605A",
"Q  c #61645E",
"!  c #656863",
"~  c #865734",
"^  c #955B37",
"/  c #886538",
"(  c #96663C",
")  c #99713D",
"_  c #A66C3E",
"`  c #946843",
"'  c #977240",
"]  c #A86E41",
"[  c #A97542",
"{  c #B97946",
"}  c #0E8105",
"|  c #168608",
" . c #26880B",
".. c #37880C",
"X. c #2A920D",
"o. c #3D920C",
"O. c #3B8314",
"+. c #399913",
"@. c #49870E",
"#. c #49980E",
"$. c #519C0E",
"%. c #498212",
"&. c #52891B",
"*. c #459B12",
"=. c #569915",
"-. c #54A20E",
";. c #48A416",
":. c #58A917",
">. c #5CB01B",
",. c #62AC1C",
"<. c #68B71D",
"1. c #5C9621",
"2. c #64AD21",
"3. c #BC844D",
"4. c #CA854C",
"5. c #D4884E",
"6. c #C08A51",
"7. c #D88C51",
"8. c #D89555",
"9. c #ED8C54",
"0. c #E79555",
"q. c #FE9958",
"w. c #E9A25C",
"e. c #FEA35A",
"r. c #FEB25E",
"t. c #E9A662",
"y. c #FEAD60",
"u. c #FDB364",
/* pixels */
"r.e.y.q.q.q.q.q.e.e.e.e.e.e.e.q.e.e.e.r.e.q.q.q.q.q.e.e.e.e.q.e.e.e.e.e.e.e.e.r.r.r.e.e.e.e.q.q.q.e.e.e.y.e.q.q.q.q.e.q.q.e.e.q.",
"q.q.q.q.q.q.q.e.e.e.e.e.q.e.q.q.q.e.r.r.q.q.q.q.q.q.e.e.e.e.e.e.e.e.e.e.e.r.e.r.e.q.q.q.q.q.q.q.e.q.e.u.u.q.q.q.q.q.e.e.e.q.q.e.",
"q.q.q.q.e.e.e.e.e.e.q.e.q.e.e.q.q.e.e.e.q.q.q.q.q.e.e.r.e.e.e.q.e.e.e.e.q.q.e.q.q.q.q.q.q.q.q.e.e.e.r.u.q.q.q.q.q.e.y.y.e.q.e.e.",
"q.q.q.q.q.e.q.q.q.e.e.e.e.e.e.e.e.r.e.q.q.q.e.e.q.e.e.e.e.e.e.e.e.e.e.q.e.q.e.q.q.e.e.e.e.e.e.e.r.u.e.e.9.q.q.e.q.q.e.q.e.e.r.r.",
"q.q.e.e.q.q.q.e.q.e.e.e.e.q.e.q.e.e.q.q.e.e.e.e.q.q.e.q.e.e.e.e.e.q.e.e.e.e.e.e.e.e.e.e.e.r.e.e.r.e.q.q.q.q.q.e.e.e.e.e.q.e.r.r.",
"q.q.e.r.e.e.q.q.e.r.r.e.q.e.e.e.e.e.q.e.e.e.e.q.e.e.e.e.e.e.e.e.e.e.e.e.e.q.e.e.e.e.e.e.e.e.e.q.q.q.q.q.q.q.e.e.q.q.e.e.e.e.r.r.",
"q.e.e.e.e.e.e.r.r.r.q.q.q.e.e.q.e.q.e.q.q.e.e.e.e.e.r.r.r.e.e.q.q.e.q.e.e.q.e.e.e.q.q.q.q.q.q.q.q.q.q.e.e.e.e.q.q.e.e.q.e.r.r.r.",
"q.q.e.q.e.e.r.r.e.q.9.q.e.e.e.e.e.q.e.e.e.e.q.r.r.e.r.e.q.q.q.e.e.e.e.e.e.e.e.e.e.q.e.e.q.e.e.q.q.e.e.e.e.q.e.e.q.e.e.e.r.r.u.u.",
"e.q.e.e.e.r.q.q.q.q.q.q.e.e.e.e.e.q.e.e.e.e.r.r.y.r.7.J J H K H J J J J F _ e.e.e.e.q.e.q.e.e.e.e.e.q.r.y.e.e.e.e.e.e.u.u.r.u.u.",
"e.e.e.e.e.q.q.q.q.q.e.q.q.e.e.q.e.e.q.q.e.e.r.r.e.7.( : # & & # & = & # # C 4.q.e.e.q.q.e.e.q.q.q.q.e.e.q.q.e.q.e.e.r.r.y.u.y.q.",
"q.e.e.r.e.q.q.q.q.e.e.e.e.e.e.e.e.e.q.e.e.e.r.u.q.D u >.| +.;.} ;.<.>.q g m - 5.e.e.q.e.e.e.e.q.e.e.q.e.q.e.e.y.r.r.r.r.y.q.q.q.",
"e.e.e.q.q.q.e.q.e.q.q.q.q.e.q.r.r.e.e.q.e.r.u.w.C V :.>.| +.>.} ;.<.>.s j @.h 5 ) e.q.e.r.e.e.q.e.e.e.e.e.y.u.u.r.r.r.r.q.q.q.q.",
"q.e.e.q.q.e.e.e.e.q.e.q.e.e.{ ) ' ( 0.e.r.u.8.` N =.<.<.| +.:.} ;.<.>.a ..=.M $ K e.q.e.e.e.e.e.q.e.e.e.y.u.u.y.y.y.q.q.q.q.q.q.",
"e.e.e.q.q.e.e.e.e.e.e.e.q.5.Z $ & * ) 0.r.u.` $ 2.<.2.:.X.+.>.} :.<.>.s *.,.M $ ~ e.e.e.e.e.0.5.0.e.r.r.y.y.y.y.q.q.q.9.q.q.q.q.",
"e.e.q.e.e.e.e.e.e.e.r.e.7.; &.,.2.2.i D r.y.( $ 2.<.;.| >.<.>.} ;.<.>.a +.,.M $ ~ e.q.e.e.q.6 . C e.r.e.q.q.q.q.q.q.q.q.q.q.q.q.",
"q.e.q.e.e.e.r.r.r.r.r.[ G &.>.-...:.e C y.e.^ $ >.<.;.| >.<.>.;.+.;.>.a *.,.%.$ ~ e.e.e.8.G m t n D 5.q.q.9.q.q.q.q.q.q.q.q.q.q.",
"e.e.e.e.r.r.r.u.e.e.e.~ $ <.,.o.a *.0 8 q.q.^ * 2.<.;.} >.<.<.<.X.X.>...+.*.M $ ~ e.q.7.) i k z h . { q.q.q.e.e.q.e.e.e.q.q.e.e.",
"e.q.e.r.r.u.r.e.q.q.q.~ & ,.-...d *.e D 0.w.( = 2.<.;.} >.<.<.<.X.X.<.<...a M $ ~ e.e.F = ,.d j B $ { e.e.e.e.q.q.e.q.e.q.e.e.q.",
"e.e.r.u.y.e.q.q.q.q.q.~ & ,... .$.-.#.B > ; N 1.<.<.;.| >.<.<.<.| X.<.<. .a M $ ~ q.e.F = >.d j %.m u ^ e.e.q.e.e.q.e.e.q.q.e.q.",
"e.e.r.u.e.q.9.q.q.e.e.~ $ :.d j $. .#.@.r e g %.<.+.+.+.>.<.<.<.X.X.<.<...a M $ ~ e.e.F = ,.d j #.%.$ F e.e.e.e.e.e.e.q.q.e.e.q.",
"y.y.y.q.q.q.q.q.e.q.e.~ $ #.d j $.j ..@.%.M g g >.X.X.<.<.<.<.<.| X.<.<. .a M = K 5.5.G t :.d  .$.%.$ J r.r.e.e.e.e.e.q.e.e.e.q.",
"y.y.e.q.q.q.q.q.e.q.e.~ $ $.d  .-.*.j d M q z <.<.X.X.<.<.<.<.<.X.X.<.<...a %.M i o O &.,.$.d  .$.%.$ F r.e.r.q.q.q.e.e.e.e.e.e.",
"u.r.q.q.q.q.q.q.q.q.e.~ $ @.@.j s d ..o.M q z >.X.+.>.<.<.<.<.<.X.X.<.<. .d @.e t &.&.:.-.$.a  .$.%.$ F q.q.q.q.q.e.q.e.e.e.e.q.",
"r.e.q.q.q.q.e.q.e.e.e.6.K t r r j j  ...%.q z >.| ;.<.<.<.<.>.+.+.;.<.<.+. ...l B ,.,.#. ... ...$.M $ F q.q.q.q.e.e.e.e.e.e.e.e.",
"e.q.q.q.q.q.e.e.e.e.e.r.5.4 @ n m k j d M q z >.} ;.<.<.<.<.>.} ;.<.<.<.>.o.a ;.>.-.#. .p s o.#.@.M $ F q.q.y.q.e.e.e.e.e.e.r.e.",
"q.q.q.q.q.e.q.e.e.e.r.q.q.9.0._ X X i M M q z >.} ;.<.<.<.<.>.} ;.<.<.<.>.+.p #.-.#.d ..#.#.d p d @.$ F y.y.q.q.e.e.e.r.r.r.r.r.",
"9.q.q.q.q.e.e.q.e.e.e.q.q.e.e.7._ _ G & : B -.<.;.X.;.<.<.<.:.} ;.<.<.<.:.o.p *.o.j ..#.#.j j k g = Q 7.y.y.u.y.e.r.r.r.r.r.r.r.",
"q.9.q.q.e.e.e.e.e.e.q.q.q.e.q.e.e.e._ D H V :.<.<.X. .<.<.<.:.} ;.<.<.<.:.o.p o.o.| o.@...d @.m L J t.u.u.u.u.u.r.r.r.r.r.u.r.r.",
"9.q.q.q.y.q.e.e.e.q.q.e.q.e.e.q.e.e.e.e.q.5 h <.<.X.X.>.<.<.:.} ;.<.<.<.:.#.p o.-.#.a p d M M u D w.r.u.y.y.u.u.u.u.y.q.r.y.q.q.",
"9.q.e.q.q.y.e.e.e.q.q.e.q.e.q.q.q.e.e.q.0.5 t <.<.X.X.<.<.<.<.>.X.+.<.-.-.#.p #.$.@...O.h $ X ~ 0.r.e.e.q.q.q.q.q.q.q.q.q.q.q.q.",
"q.q.e.y.q.e.e.e.e.q.e.e.e.e.q.q.e.q.q.q.e.4 h <.<.X.X.<.<.<.<.<.X.X.<.-.-.o.p ..@.M e e Z ( ^ 4.q.q.q.q.9.q.9.q.q.q.q.9.9.q.q.q.",
"q.q.q.q.q.e.q.e.e.e.e.e.e.q.e.e.e.e.e.e.q.4 t <.<. .| <.<.<.<.>.X.+.<.-.#.o.d k B m 7 > / q.q.9.q.q.q.q.q.9.q.q.q.q.9.q.q.9.q.q.",
"q.q.e.q.q.y.e.e.q.e.e.e.e.e.e.q.e.q.r.y.e.5 t <.<.X.X.<.<.<.>.} ;.<.<.-. .d #.@.e 4 w.e.q.q.q.9.q.q.9.q.q.q.q.q.9.q.q.q.q.q.q.q.",
"q.q.e.q.q.q.q.q.e.e.r.y.e.e.e.e.e.r.r.y.e.7 t >.X.+.>.<.<.<.:.} ;.<.<.-. .d $.$.u @ w.q.q.q.9.q.q.9.q.9.q.q.q.9.q.q.q.q.q.q.q.q.",
"e.e.e.e.e.e.y.y.y.r.q.q.q.q.e.e.r.y.q.e.0.7 t >.| ;.<.<.<.<.:.s *.<.<.-. .d $.@.e ; 9.9.9.q.q.9.q.q.q.q.q.q.e.q.q.q.q.q.e.e.q.e.",
"q.e.q.e.e.e.y.u.y.q.q.q.q.e.q.y.y.q.q.q.q.6 t >.} ;.<.<.<.<.:.p o.:.>.-. .d -.@.e @ 9.q.q.q.q.q.q.q.q.q.e.e.e.e.q.q.e.e.e.e.r.e.",
"e.q.e.e.e.y.y.q.q.q.q.q.e.q.r.y.e.q.q.q.q.4 t >.} ;.<.<.<.,.#.p o.-.-.-.j d $.#.e @ 9.q.q.q.q.e.e.e.q.y.e.y.e.q.e.e.e.e.e.e.e.e.",
"e.e.e.e.y.u.y.q.q.q.q.q.e.e.r.5.~ ~ 5.q.e.4 t >.} ;.<.<.<.:.#.p o.-.-.-.j d $.@.e @ 9.q.q.q.e.e.q.q.e.e.q.q.e.e.q.e.e.q.e.e.e.e.",
"e.e.e.e.y.y.q.q.q.q.q.e.e.e.0.` o o ^ 5.4.Z l ;.X.:.<.<.<.:.#.p o.-.-.-.j d $.@.e @ 9.q.q.q.e.q.q.q.e.q.e.e.e.r.y.r.u.y.r.r.r.r.",
"e.e.e.r.y.q.q.q.q.q.e.e.e.w.H 3 ! ! 9 . - 1.+.| >.<.<.<.-.-.o.p o.-.$.-. .d $.#.e @ 9.q.q.q.q.e.e.e.e.y.y.y.e.e.e.e.u.y.r.r.e.e.",
"q.e.r.r.e.q.q.q.q.e.e.e.0.D Y E ! ! E U - =.+.| 2.<.<.<.-.-.*.p o.-.-.-.#...d @.e @ 9.q.q.e.r.r.e.e.r.e.q.q.q.q.q.q.q.q.q.q.q.q.",
"e.e.r.e.q.q.q.q.q.e.e.7.` 2 E ! ! ! ! Q U P l f +.>.<.>.-.-.#.p ..-.-.-.-.+.p O.h u _ _ ] ] [ 8.e.e.e.q.q.q.q.q.q.q.q.q.q.q.9.q.",
"r.r.r.e.q.q.9.q.q.e.r.~ o ! ! ! ! ! ! ! ! 3 2 1 f ;.,.-.-.-.o.d o.-.-.-.-.o.p z B N O o o o . K 0.0.9.9.q.q.q.e.q.q.q.q.q.q.q.q.",
"r.r.q.q.9.q.q.q.e.e.r.~ o ! ! ! ! ! ! ! ! E R U 1 z :.-.-. .d #.$.-.-.-.=.o.p y 1 2 E E Q E R 3 + + + ~ e.q.e.e.q.q.e.e.e.e.e.q.",
"r.q.q.q.q.q.q.e.e.e.e.~ * Q ! ! ! ! W W E E E R U x m -.-. .d #.-.-.$.-.B u w I T R ! Q W E U 3 v I v S ^ 0.e.e.q.e.e.e.e.e.r.e.",
"q.q.q.q.q.q.e.q.q.e.7.K 2 ! ! ! ! W W R E E E E E 9 x %.$... .o.#.$.$.%.c 3 v W ! ! ! E R U 3 R ! ! ! I + 0.e.e.e.e.e.e.e.q.e.e.",
"q.q.q.e.e.e.e.e.e.w.2 v ! ! ! ! ! E E E E E E R E T 9 1 @.$.@.p o.#.B : R ! ! ! ! ! E R U 2 E ! ! E E 3 - 8.e.r.r.r.r.e.e.e.q.e.",
"e.q.e.e.q.e.e.e.y.0.; I ! ! ! ! Q W E E E E T T U T 9 1 M @...p ..m 2 E ! ! ! ! ! E E 9 A E ! ! W E E T A 7 3.e.q.q.q.q.q.e.q.e.",
"e.e.q.e.e.e.r.r.e.9.; 3 ! ! ! ! W E E E E R U U U U 3 < e e 0 % 0 x U ! ! ! ! ! E E R 3 3 ! Q W W E E R U < H { q.q.q.q.e.e.e.q.",
"q.e.q.e.e.e.e.q.q.0.; 3 ! ! ! W E E E R R U U U U U 3 < 4 ; 4 4   < ! ! ! ! ! E E E T 3 A ! E E E E E T U U < 6 q.q.e.q.e.q.e.e.",
"e.e.e.r.e.e.q.q.q.0.4 b ! ! W E R R E Y U U U U U U 3 @ 5.q.0.0.C 2 ! ! ! Q E E E T 2 U ! ! E E T U U U U U < 6 q.e.e.e.q.q.q.e.",
"e.e.e.q.q.q.q.e.e.q.5.G , < , * , - o o o o o o   , 8 4.q.e.e.e.7.` < , < , + o o o   o < < , o o o o o o o / 7.q.q.q.e.q.e.q.e.",
"e.e.q.q.q.e.e.q.q.e.e.{ H G H D D D D D D D D D H D _ e.q.e.e.e.q.5.D D D D H D D D D D D D D G D D D D D D 4.e.e.e.e.q.e.q.q.e.",
"q.e.e.q.e.q.e.e.e.e.e.y.u.u.q.q.q.q.q.e.e.e.e.e.q.q.e.e.r.e.q.e.e.e.e.y.u.q.e.q.q.q.q.q.e.r.u.u.e.q.q.q.q.q.e.e.e.e.e.e.e.q.q.e.",
"e.e.e.e.e.q.q.e.e.r.y.y.y.e.q.q.q.q.e.e.e.e.e.q.q.q.q.e.r.e.e.e.e.y.y.e.q.q.q.q.q.q.e.e.r.u.y.y.e.q.q.9.q.q.q.q.q.e.e.e.e.q.q.e.",
"e.r.e.e.e.e.e.e.y.y.u.y.q.q.q.q.q.q.q.e.e.e.e.e.e.q.e.e.e.e.e.q.e.q.q.q.q.q.q.q.e.e.e.r.y.y.y.e.q.q.q.q.q.q.e.q.q.e.q.q.e.e.e.e.",
"e.r.e.e.e.r.r.r.u.u.q.q.q.q.9.q.q.e.e.e.e.y.r.e.q.y.e.q.q.e.e.q.e.q.e.q.e.e.e.e.q.y.y.y.y.y.y.q.q.q.q.q.e.e.e.q.q.e.e.e.e.e.r.r.",
"e.q.e.e.r.y.e.q.q.q.q.q.q.q.q.q.q.e.y.y.y.e.q.q.q.q.e.e.e.e.q.y.e.e.e.e.e.e.r.e.y.y.y.y.y.y.q.q.q.q.q.q.q.e.e.e.e.e.e.e.r.e.e.e.",
"e.e.e.r.r.e.q.q.q.q.q.q.q.q.q.q.e.y.e.q.q.q.q.q.q.e.e.q.e.e.y.q.y.u.u.y.r.r.r.r.u.y.y.y.y.q.q.q.9.9.q.e.e.e.e.e.q.e.e.r.r.q.0.q.",
"e.e.y.q.q.q.q.q.q.q.q.q.q.e.q.e.y.q.q.q.q.q.q.q.e.e.q.y.y.y.u.y.u.u.y.y.r.r.r.u.u.y.u.y.q.q.q.q.q.q.q.e.e.e.e.e.e.r.r.e.q.q.q.e.",
"e.r.q.q.q.q.e.e.q.e.e.e.e.q.e.y.r.q.q.q.q.e.e.e.e.e.r.y.y.y.y.y.u.u.y.y.r.u.y.y.q.e.e.q.9.q.9.q.9.q.q.q.e.q.e.r.r.e.q.q.q.q.q.e.",
"e.q.q.q.q.q.e.q.e.e.r.e.q.e.e.y.q.q.q.q.e.q.e.e.r.y.r.y.u.u.y.y.y.q.q.q.q.q.q.q.9.q.q.q.q.9.q.q.q.q.q.q.e.e.r.r.e.q.q.9.q.q.q.e.",
"e.q.q.q.q.e.q.q.e.e.r.e.e.q.r.r.q.q.q.e.e.q.e.r.y.y.y.r.q.q.q.q.q.q.q.9.9.q.q.q.q.9.9.q.q.9.q.q.q.q.e.e.e.e.r.r.e.q.q.q.q.e.e.e.",
"q.q.q.e.e.e.q.q.e.e.e.q.e.e.y.e.q.q.q.e.e.e.r.y.r.y.y.q.q.q.9.q.q.q.q.9.q.9.q.q.q.9.q.q.9.q.q.e.e.e.e.q.e.r.r.e.q.q.q.q.e.e.e.e."
};
