/* XPM */
static char *d888989e275d4c4a886f583f24c0e387ET6D3CB4JeqMvqLs[] = {
/* columns rows colors chars-per-pixel */
"64 64 54 1 ",
"  c #70C1C7",
". c #8CCDD2",
"X c #80C7CB",
"o c #D9F0F1",
"O c #6EBFC3",
"+ c #75C2C4",
"@ c #A3D7DB",
"# c #70C1C5",
"$ c #6FC1C5",
"% c #70C1C4",
"& c #87CBCF",
"* c #91D1D5",
"= c #97D4D9",
"- c #73BFC4",
"; c #76C5CA",
": c #7BC3C6",
"> c #70C0C5",
", c #72C3C7",
"< c #7BC5CA",
"1 c #86C8CB",
"2 c #DAEEEA",
"3 c #9FD5D8",
"4 c #DEECE5",
"5 c #91CDD0",
"6 c #71BEC0",
"7 c #83C9CE",
"8 c #96D2D5",
"9 c #D4EFEE",
"0 c #A9D8DA",
"q c #9ED8DD",
"w c #C6EBEC",
"e c #7BCDD1",
"r c #BCE3E5",
"t c #8BCBCD",
"y c #D8E1D6",
"u c #6BBABD",
"i c #B5DFE1",
"p c #CFECED",
"a c #AFDBDD",
"s c #81C4C7",
"d c #C4E6E7",
"f c #65B3B7",
"g c #9CD2D4",
"h c #997F59",
"j c #77BEC1",
"k c #D9E2DB",
"l c #A09075",
"z c #998464",
"x c #CCD2C6",
"c c #BDBBAB",
"v c #AAA089",
"b c #C7C6B7",
"n c #B5AD97",
"m c #8CC7F1",
/* pixels */
"hhhlxyyyyyyyyyyyyyyyyyykkyyyyyyyyyyyyyyyyyyyyyyyyyyyyyyyyyybzhhh",
"hhzvk2299999pp9229999p99o9992999229p999p9999929p9999p99999oxlzhh",
"hlbx49ra85@i3tgia55aa550i353a05gaa850ig53a05ga055aag50i350okxczh",
"zv4o9p03:6.q&6sq8-+3=:65q7-7356:38+j8qX6t3t6:38-j=3s6.qt65po2ylz",
"cx2prat1.&71t.&7&tt&&tt11..&11t.&&t.t1&t&&&.&11t.1&..&77.*809kbc",
"422pa3:68qX61q.6<3g++83X6.@.6Xq=,+=q:6*@&O7@*>:3q:6*q7O&@*Otp224",
"2pdi5t11t.:%<&X>;&& #7&6us.<-;.7  7&+-7.<>;&7 ;&&+%7.<O<.&15@ap4",
"4d0gj+=q<O%%> #  >>$%%Offu>>>>>O>#>>OO-%##$>>>>>$$,$ #%%OX38jsw4",
"2d8.XX..-uO%%%########>ufuO#> >###;;%%%#####>>>$$$$%%,;,$:..Xtw4",
"2r-<q=:Offu%%%%########%OO>#>  ##,ee,%%#####$$>O$$$%Oee<$O6<=0p4",
"2rsX**+OufuO%%%##,,####%%%###$$##,ee,%%####$#::17,>%%;e;#+:X*3p4",
"2d3*+-%%%OOO%##%,ee#O%O>$$$$##>######%%###$$<=0wwXO%%# >#X3*-sw4",
"2w3*:+%%%%%%##%+s..s:+->$$$OOO$###########$$<=@rr<O>>># >X=*:1w4",
"2i:s8*;%%%%%%O<=0wwww@=<%#%ufu%###########$$#::<<%%%>>$ >%-X=0p4",
"2rj:==;>%%%++:&@awppw03X--+ufuO##########>$$%%>>%%%%>>$ >%-X=0p4",
"2dg*X<> >%&8ari@gt11tg@=88=7u6%%%######%;e;%%%$$$%%%>>> %<**Xtw4",
"2d@=+>   O.@r9d@8-OO+8@@@@@.6%%%%######%;ee#%##>>>>>>>> OXq*-sw4",
"2r11.., $O<1.8tX<%$$%X71117:%%%%%#####%%;;,#####>>>>>>>$%+X1.gw4",
"2ijj33;$$$$>>OO%%%##%%%%%%%%%%$#######%%%O%%%%OOO>>>>>%%%%6:3ap4",
"2r5&&7,$%##>;e;>>>##%%$$$$$$#######%%>>%<&ttt&5@q:>$$$%$%;t&15w4",
"2d0=-O>#$##O;ee >>>#%%%############%%>O6&@@@@@a9wXO%%%%$$X@86sw4",
"2r5.1X,####%,e;#> >#%%%########%uuO%X15g0i0...8rr5117:%6u+.&15w4",
"2ij:3=;$###%%$##> >#%%%########OffO68@d99oa->>:30@@@q76uffO<30p4",
"2r1X*.;####%%####$$#%%%#######OOuuOO&*@iii=->%;*=**=*<6ufu<15gw4",
"2d@8j->#########$$O%%%%########%%O%>>-++++-%%%,ee+--->#OOXq*-sw4",
"2d=*<;>########>,XX::%####, $#%%%%%>#$$$ $ ##%,ee,%%%>#$$X=*<tw4",
"2ij<==;>####### &ww@=;$##;e;>##%%%%>#$$>> ####$ >>>$$#$$%%+<=0p4",
"2ijX==<>OO%####>7wd@=+O##ee;%%%%%%%############$$#####%%O%+<=0p4",
"2dg*::-Ouf6#####,Xs:;%O##,,%%%%########################$O<=*:1w4",
"4d38+-%%ffu######%O>>>>####%%%%#######################  OX3*-sd4",
"2rss**+OuuO###$$%%%$$>>####%%%%#######################%%%+:X*3p4",
"2ij:3=;O##$#####$##$$#####$%%%$$######%%%  #%%%%$>>##%%%%%6:qap4",
"2d5.77ee,$$########$$###>>$$$$$$######%%>  $%%%%%$>%###$%:.tX5w4",
"2d08+ ee;#########%OO%%>>>>>>#$###%>####>>>%>>>O>$$#>#  %Xq8-sw4",
"2rt&t&X;,########$;g3@35&..X>$$#$#;;,$#%<&tt53@3=;>>#uuO%;&&1gp4",
"2ij:33<>>##O%O%>OOswoo9i@@@.>  #%#ee;>>>&@3@a99owXOOOffuOO6:3ap4",
"2r11..+%###O:Xs11*grda085g351<>%%#eeX11X*@g.8iidr5X+OufuO+X1.gw4",
"2d@8j-6%###O&q@@apwagufu6.@@@*%O%%%+=@33@@5-+&.30@q<O%%$%7q86sd4",
"2dg5X:%%##%6X*883ii=.ufuO7*88&%%%%%-.8888*&%,e7*88=<O%%$><*.Xtw4",
"2ij:==+%###%%+--+++---OO%#----#####%-++---%%##%---+####%%>-<=0p4",
"2i:s8*+%################################################$,:X=@p4",
"2d38:--###############################################$$%X=*+sd4",
"2d38:,,###############################%O%#############$%%X3*+sw4",
"2rss**,$#############################Oufu%%###########$$%,:X83p4",
"2ij:g=;>############################$Offu%%###########$$##%s30p4",
"2dg5X<%%#############################>OuO%%$$$$########>%<*.Xtw4",
"2d08+ %%####################$##########%%%%----O>>#$##>>OXq*-sd4",
"2r&&..,>>>>%%%###%$ >>>;e;%#$$  #%%%##$%<.8000@5.X;,%%%>>+77.gw4",
"2ij:qq;>>>%%%%O%%6666>>ee;O$$>>>%O%>#>%6&@i9oop0@.e+O%$> %6:q0p4",
"4rt1&&#>uuOO<&11tggg8;>;;,%#>;&.38+%#>X&8@3@@@@@38*t7<>  ;1&&8w4",
"4d@8-6O%ffu>&q@@apoow7O%%%%#>XqapwsO#-*@@@.666:3@@@@q7> >7q8-sd4",
"4r5.1X,%jj<X5@g58aidr5X,O%%#><.8aq:O%%7**57#%%+&t.***<>$><..s5w4",
"2ij:qq;#*@qq@@5---:3@@qXO#>##>----#%%O%----#%%6ff66->>OOO66:=0p4",
"4isX**;>.88888&>$ ;*88*<>#>$$$$> $$#,,,$> ####OffO%#%OOOO-:X*3p4",
"2d@8:+%>+--j--+%$##-+++->#%#>>$$$$##ee;###$$$#>O$O$$$$OOOX3*+sd4",
"4d38:;>>O%    $#>$###%$ >%%%  %%  %%ee;%%$#$$># #$ $$>O6+785:1d4",
"2i:s88;OO%$     >%%  $$$$%%%  %#  %>,, >$%$      $>   O7=.:s80p4",
"2i:sg=:+%6%+%$##%%%##%%%-%O%++%%%+%%-,>>>+-$ ,   +->>>-&q*-s3ap4",
"2pdas:**:6&=76X*.%+**+6&*XOX8t6:**+6.=<-7=&><8.--.8:67=.:&8@dp94",
"42ods+=3X-5q&-7q*+:==:j5q1-&q56:3=:j8q7-&q5-Xq8+j8qX6.qt61@a924k",
"vc2piats.*&s&*&X15.7Xt51X.*&X7..XX.51X.*&s15.X7.*11.*&X&5@dwoknv",
"hvk2owsj8@16t@.6s3g+jg3sj.@t6X@8-jg3:65@1u1@8j:33:j5@1613i9o2ylh",
"hlnck9a0rra0iri0arr00rra0iri0arr00rr00iri@adi0arr00ira0arp2ycnzh",
"hhhlkoooooooo2o9oooooooooo2oooooooooooo2oooooooooooooooo2o2xlhhh"
};
