/* XPM */
static char *a4a63c1aabf7425eda4ab437a6e07e85kxCEzhSYwwD5K6po[] = {
/* columns rows colors chars-per-pixel */
"64 64 243 2 ",
"   c #030301",
".  c #0B0402",
"X  c #070E0D",
"o  c #1A0200",
"O  c #160903",
"+  c #1C130C",
"@  c #181307",
"#  c #161817",
"$  c #0E191B",
"%  c #270901",
"&  c #3A0C00",
"*  c #360800",
"=  c #321401",
"-  c #33160B",
";  c #271514",
":  c #231306",
">  c #22211F",
",  c #3B261B",
"<  c #3F2116",
"1  c #363531",
"2  c #501400",
"3  c #512912",
"4  c #4D3628",
"5  c #3E433F",
"6  c #7A451D",
"7  c #5A4838",
"8  c #5F503D",
"9  c #4E4139",
"0  c #764935",
"q  c #664B38",
"w  c #414242",
"e  c #504444",
"r  c #685447",
"t  c #786A5F",
"y  c #7A6B66",
"u  c #AF4E3E",
"i  c #B7443A",
"p  c #AF6B3B",
"a  c #A15548",
"s  c #B44F45",
"d  c #866B5F",
"f  c #926F59",
"g  c #A77253",
"h  c #896E69",
"j  c #9B7E73",
"k  c #8E766A",
"l  c #A87965",
"z  c #9B877A",
"x  c #A6806C",
"c  c #A58475",
"v  c #B39579",
"b  c #D98C5D",
"n  c #F4944E",
"m  c #FA944E",
"M  c #F4994E",
"N  c #FA9B4F",
"B  c #F69046",
"V  c #FF8F53",
"C  c #EC9B5C",
"Z  c #EB9756",
"A  c #F59652",
"S  c #FB9454",
"D  c #F69A53",
"F  c #FB9C55",
"G  c #F3955B",
"H  c #FE9459",
"J  c #F59C5A",
"K  c #FD9D5A",
"L  c #EE9051",
"P  c #F6A155",
"I  c #FCA156",
"U  c #F6A25B",
"Y  c #FDA35B",
"T  c #FEA95D",
"R  c #F7AB5D",
"E  c #ECA35E",
"W  c #CF9C74",
"Q  c #DD9D73",
"!  c #C2846E",
"~  c #EB9D64",
"^  c #E59D6B",
"/  c #E99B6C",
"(  c #E79669",
")  c #F19663",
"_  c #F39E64",
"`  c #FB9D64",
"'  c #F79A67",
"]  c #E49F76",
"[  c #E29E79",
"{  c #EB9768",
"}  c #DBA579",
"|  c #EDA464",
" . c #E5A16E",
".. c #ECA36C",
"X. c #ECA869",
"o. c #F4A364",
"O. c #FDA561",
"+. c #FFAC63",
"@. c #F3A36B",
"#. c #FBA36C",
"$. c #F4AC6B",
"%. c #FDAC6A",
"&. c #F1AA65",
"*. c #FFB165",
"=. c #FFB269",
"-. c #F7B16D",
";. c #E5A473",
":. c #EBA472",
">. c #E8A87A",
",. c #F3A672",
"<. c #FBAD71",
"1. c #F4AD7A",
"2. c #F6A776",
"3. c #EAB07D",
"4. c #FCB373",
"5. c #9A9B99",
"6. c #98938F",
"7. c #A09B9F",
"8. c #BAA48D",
"9. c #9FA5A5",
"0. c #BDB0A7",
"q. c #D8A586",
"w. c #D7AC99",
"e. c #DAB49A",
"r. c #D1B398",
"t. c #E8AA85",
"y. c #E9B489",
"u. c #F4B385",
"i. c #F5B48B",
"p. c #F5BA8C",
"a. c #FBBB8E",
"s. c #FCB586",
"d. c #E5AC97",
"f. c #EDB494",
"g. c #E4B39B",
"h. c #EAB69D",
"j. c #E7B89C",
"k. c #EABA9A",
"l. c #E7B796",
"z. c #F6B994",
"x. c #FDBD93",
"c. c #F2B69B",
"v. c #F3BA9C",
"b. c #F7B693",
"n. c #F4AC91",
"m. c #D6ABA3",
"M. c #DAB4A3",
"N. c #DAB8A5",
"B. c #C8B4AD",
"V. c #FCAFA4",
"C. c #E3B4A4",
"Z. c #EDBBA3",
"A. c #E9B8A4",
"S. c #F3BCA2",
"D. c #FCB3AA",
"F. c #E8BCB1",
"G. c #F1BCB6",
"H. c #FFC38D",
"J. c #EAC29C",
"K. c #FEC49E",
"L. c #F9C59C",
"P. c #D9C2BA",
"I. c #EBC1A9",
"U. c #FDC5A1",
"Y. c #FECCAC",
"T. c #F7C8A8",
"R. c #FFD0A6",
"E. c #FFD1AD",
"W. c #EDCBBC",
"Q. c #ECC8B2",
"!. c #F3C4B3",
"~. c #F6CBB3",
"^. c #FDCCB3",
"/. c #F4CCBC",
"(. c #FBC9B9",
"). c #ECD3BC",
"_. c #FFD3B3",
"`. c #FFDAB4",
"'. c #F2D2BD",
"]. c #FDD5BC",
"[. c #FEDBBD",
"{. c #D9D9DA",
"}. c #D1CAC4",
"|. c #FECEC2",
" X c #F3CDC0",
".X c #FCD4C4",
"XX c #FDDBC4",
"oX c #FCD6CB",
"OX c #F5DCCD",
"+X c #FFDDCA",
"@X c #F3D7C5",
"#X c #F3DDD2",
"$X c #FCDFD3",
"%X c #E6D6C9",
"&X c #FFE6C4",
"*X c #FEE4CC",
"=X c #FFEBCC",
"-X c #F2E2C9",
";X c #E4E4DD",
":X c #EDEADF",
">X c #F3E3D5",
",X c #FDE3D4",
"<X c #FEEBD4",
"1X c #F3E4DA",
"2X c #FCE4DB",
"3X c #FFECDC",
"4X c #F4E8D9",
"5X c #FFF0D5",
"6X c #FFF4DE",
"7X c cornsilk",
"8X c #D8DDE0",
"9X c #DFE7E6",
"0X c #ECECE4",
"qX c #ECEDEC",
"wX c #E7E5E7",
"eX c #F4E5E5",
"rX c #F4ECE4",
"tX c #FDEDE3",
"yX c #F2EDEB",
"uX c #FDEEEA",
"iX c #FAE7E6",
"pX c #ECF0EB",
"aX c #FDF2E4",
"sX c #F5F3EE",
"dX c #FEF4EC",
"fX c #FFFBED",
"gX c #EDEDF1",
"hX c #E8EBF3",
"jX c #F2EDF3",
"kX c #ECF2F3",
"lX c #ECF5F9",
"zX c #ECFCFC",
"xX c #F4F3F3",
"cX c #FCF5F4",
"vX c #F5FBF6",
"bX c #FEFBF4",
"nX c #F5F4FA",
"mX c #FCF6FB",
"MX c #F5FCFD",
"NX c #FFFAFE",
"BX c #F9FFFF",
"VX c #FEFDFE",
"CX c #FEFEFD",
/* pixels */
"U I I U Y Y Y K F N K F I T S N F D U U +.=.#.' Q q.r.dXNXCXbXMXbXCXMXMXnXmXMXxXbX).} :.U Y T I I F U +.+.Y S S m F K K K I T =.",
"I U Y T Y Y I K K K I F K I D F Y Y U T %.%.) ( `.5X3XBXNXNXCXfXCXCXMXMXnXgXqX0X:X6X[.1.%.T I m I F T %.%.F A H H H F K Y I U +.",
"O.+.T T Y I F F F K Y Y Y I K I I K I T *.o.:.U.5XfXbXCXNXNXbXbXdXpXqXpXqX0XqXvXdXfX<Xt.$.F K K Y D Y %.Y H m S Y K F F I P P I ",
"Y K K F S D H F F I Y Y Y I D I S K I T Y C t.3XfXfXvXCXCXNXmXMXbXxXpXxXsXsXmXCXmXbX,Xy.^ C J J U F +.+.F S S H K Y T P P P Y T ",
"H S S A H F K Y O.I F F I I P F N I T T M ( h.iXeXqXrXmXNXCXMXMXCXCXCXCXmXNXNXNXBXNXfX5Xa.~ ` Y U +.%.%.m m F F I T R T P I I *.",
"F S S K K K Y K Y I D Y Y Y U I D Y T U Z a..XeXyXxXrXdXjXnXlXzXMXCXCXCXCXCXNXCXCXmXbX7Xx.~ o.%.+.+.T D n A Y F Y I T P Y T T *.",
"S S H K Y H D D F I I +.T I Y I K T Y C / E.tXyXgXwX0X:XyXjXhXlXMXMXvXsXsXsXxXcXnXbXaXY.1.%.=.T +.K A n A F Y K I Y I P T T *.R ",
"S S K O.O.O.K Y Y +.T T Y M K Y K T U C ;.`.>XwXwXwX0X;XeXwXwX9X9X;X;X;X;X;X;XwXwX1X'.W ,.O.F N m A D K Y I P Y P Y I N T *.*.R ",
"S H K O.O.F F Y %.%.Y D M F I K U O.U @.} ].aXmXCXCXMXCXmXcXbXbXvXbXbXmXmXbXcXbXcXbX6X`.1.G D D F H I Y T T P D I F F Y +.*.T P ",
"D K K K K Y %.+.T F D S S K Y T K I o...k.@XbXkX7.5.9.6.P.2X#X>X>X4X1X2X2X#X2XiXiXOX[.K.<.O.F O.Y Y Y Y P Y U P P T T T +.*.*.D ",
"D Y Y K K O.T K D A A D K K Y Y Y F I s.=X4XvX{.#   X . c I.N.M.M.Z.C.A.w.M.F.m.F.C.y./ ` K I I K Y Y Y I I I I I *.*.+.+.%.Y A ",
"K K K T O.+.F n D D K K I K K K Y K L u.<XbXBX{.> . 1 0.Q./.XX0 0 (.(.(.S.A.S..X|.! 2 / #.D F N P I Y Y I Y Y U T *.*.*.%.Y D M ",
"Y D I Y Y K N D K K Y K Y Y Y K N I P i.,XCXCX{.; 4 k #XXX].XX4 3 .X].^.w.k.Z.!.+Xl * ] ~ J Y F Y U Y I I Y T +.*.+.+.O.Y D S S ",
"I K I T F m D Y K K Y D D K Y I *.+.U p.<XbXCX{.+ z 2X X.X~.+Xq q @X'.Q.c.v.g.g.+Xl 2 } s.O.I I I I Y Y T *.*.*.*.+.T K S S S S ",
"F I Y Y I N F Y I I Y F J F I I T U o.p.=XfXCX{.+ z 2X@X@X.XoXN.F.>X+X].c.y.h.Z..X].v.;.4.D I N P Y T +.*.*.+.+.T T K A S H H H ",
"I Y I F F I I F K K K K T Y Y Y U O.o.;.J.=XvX8X@ 7 z W..X X X$XP.y h x v.v.h.A.j f g ;.o.P I I Y T +.+.+.R U P A A A S S H H H ",
"I I Y F D I I I T T T T Y I I Y T Y O.@.y.].bX{.1 O , W.|..X@X%X6.  . 4 r.r.m.r.< . = W X.P Y I +.T Y D D D A D S D D S H K K K ",
"I I I I I I T T *.T +.+.T Y Y Y T M T %.,.`.sXvX:Xr - XX|./.@X8 O # + + % = % % : @ = * p =.F T F D D S D H H H F H H K K Y K ` ",
"Y U F I T +.+.+.T K D F I I K F K I T ` ~ [.aXdXfX8.f F.|.|..Xv r O o , j h h h ; o * g C U Y K D D F H K Y Y K K K K F Y I Y %.",
"Y F U T +.+.O.T D D M M D D I Y F I K D _ a.*X,XXXT.S.c.W.|.~.XXM.< - r +XXXoX(.0 3 6 3.$.D K F Y Y Y Y K K K K K K D K J F Y T ",
"I I T %.+.+.U D A D H K I I I Y P D J Y O.~ L.R...~ / n.(.oX]._.~.w.e.C.j.b.;.( #._ @.U I P Y I K Y F I K Y K K K K K F Y I K F ",
"Y Y %.+.+.Y D n K H Y K K P P P T T %.O.K _ ,.1.o.#.' b d.G.G.!.h.S.Z.j.f.] ,.' J Y D I N N I I I +.+.+.O.O.T Y K I K N K F N N ",
"Y +.+.+.I J A A O.K H F F I T T *.T T K F K C ~ ..:.n.! w.G.g.g.A.V.d.b.b.[ [ 2...| R P R T *.+.=.=.*.+.+.+.T U I Y I I I I F F ",
"T +.%.Y A A G J H F K K Y +.+.+.Y S S M S G | ;.K.`..X3XtX$XN.j.C.C.g.j.g.^.]._.`.p.X.4.*.R *.O.=.+.+.I I I F A N F Y T I Y N I ",
"+.+.Y F A S K K K ` K Y %.T S m D n H O./ u.k.I.aXiXiXbXbXaX,X,X$XOX,X>X,XtXdXuXiX.XT.R.2.C ` S F D m m m N D F Y I I I I P P T ",
"*.+.Y A S S H ` O.D Y O.T K D N F Y ` ' t.[.<X4XbXvXjXNXbXbXfXbXbXrXbXCXCXCXCXNXjXcXcX,Xv./ Z H S S F F K K F K Y I I P R I T *.",
"%.Y K A m F H Y Y D T +.K M F S A T O.s.].fXbXbXyXyXxXmXCXCXCXCXmXyXmXCXBXBXCXmXyXcXcXtX*XR.o.I F F K K I I Y Y I T T +.*.*.*.*.",
"K S A A K H Y K K T O.F M D Y K Y O.J u.,XvXBXCXqXsXmXCXCXCXBXCXNXeXmXBXBXBXCXCXcXxXkXvXaX[.;.o.+.O.T T T Y T T T +.*.T T *.*.*.",
"S A S H F K I I F O.Y M D Y K K K ` _ u.,XbXCXvXgXnXCXBXBXBXCXCXmXgXbXCXMXvXCXBXCXMXkXBXfX'.y.3.-.*.*.-.=.*.*.*.*.*.*.+.*.*.+.+.",
"S H S F F Y Y Y I Y D N Y Y K K K O.@.f.#XvXCXCXyXnXCXBXMXMXCXbXmXjXvXbXCXMXCXCXCXxX9XMXbXaX&XH.-.*.*.*.=.*.*.*.*.+.+.+.+.+.K J ",
"H H H H K I Y Y Y I N I K I D K F ~ p.XXdXMXbXfXqXnXCXCXCXBXCXCXnXgXpXxXCXbXCXCXCXmXhXMXCXbX<Xz.%.T T Y K Y Y K O.Y G H H G S S ",
"V H H ` Y Y I I I N Y I K K Y D Y ..T.3XCXBXbXbXjXcXNXCXCXCXCXmXmXxXsXsXbXCXbXCXCXcXgXmXNXCX2Xv.{ H S m m S S S S S H H V V H H ",
"H K K Y K D I F I I I Y I F K Y U ..~.aXCXBXCXbXrXcXCXCXCXCXCXCXCXBXsXsXbXCXCXCXCXcXyXmXCXbXtXg.{ H S V S H S S V H V H H V H H ",
"K K K I F F Y I I I I Y Y O.O.I Y X.~.rXbXbXvXsXrXcXCXCXCXCXCXCXBXCXqXdXCXCXCXCXCXCXcXjXmXcX3Xe.( G m m V H H H H S S H V S H G ",
"O.H S K I I Y Y I Y T T T Y Y J Y :.Q.rXbXbXsX0XrXsXMXMXBXBXbXCXCXCXpXxXCXCXCXCXCXCXCXgXxXCXaXQ.>.G S m V H K H V S H H D D K K ",
"Y F D Y Y K K Y +.T Y K D A F O.o.y.).aXbXbXxXpX0X0XlXMXBXBXCXCXCXCXyXsXCXCXCXCXCXCXCXqXnXCXbX3XU.#.H F K H J J D H Y K Y O.F Y ",
"Y K F T Y K Y T *.Y D A N D K O.s.Y.eXMXCXMXlXkXpXqXlXMXCXCXCXbXCXCXqXdXCXCXCXCXCXBXBXkXMXBXbXfX_.@.O.Y O.` O.J O.K K Y T *.Y P ",
"Y Y Y Y K Y %.+.K A A Y Y Y Y O.p.*XbXBXBXCXMXhXxXhXlXmXCXCXmXCXCXCXyXsXCXCXCXBXBXBXCXkXkXBXCXdX^./ o.+.O.J O.R U F Y F I T I P ",
"P Y F Y Y %.%.O.A A D K K I Y %.t.+XcXCXCXCXnXhXyXqXnXNXCXNXCXCXCXCXyXcXCXCXBXCXBXBXCXkXkXCXCXaX`.^ O.I Y F U U I Y T I P P R I ",
"P U I U Y %.%.A A D K K Y Y Y J >.+XdXNXmXCXnXgXqXqXxXNXCXCXCXCXCXCXyXxXCXCXCXBXBXBXCXyXsXCXNXdX_.:.@.P T O.%.+.T +.T T T *.*.T ",
"I I I T %.O.F A A K K K Y T I Z t.+XbXCXbXyXxXqXqXrXyXCXCXCXCXBXCXBXmXcXbXCXCXCXCXCXCXuXuXbXNXdX_.:.O.T T Y I K Y +.=.%.+.T K S ",
"I P U +.+.Y A A J K K K K Y K C y..XdXCXbX;X9XkXqXqXsXbXbXCXBXMXCXCXCXMXCXCXCXCXCXCXcXtX3XcXdXtX^.,.o.F m m M M M S H G S D S D ",
"I I T +.%.D L D H Y ` Y Y K F ~ f.$XcXmXdX1X0XqXqXyXrXCXCXCXCXBXBXCXCXCXCXCXCXCXCXCXdX2X+X+XoX/.f.:._ M S S N N N m S S A S S Y ",
"P *.%.+.K A A D K Y Y Y Y K F / t./.$XtX+XB.%XyXrXyXsXmXbXCXCXBXCXCXCXCXCXCXCXCXCXCXtXI.A.g.W.!.S.2.J N F Y I I K I K K K Y H Y ",
"Y %.%.D M D S F I Y Y Y Y F J #.t.c.Y.T.f.W N.tXrXrXyXNXCXCXCXBXCXCXCXCXCXCXCXCXmXbX3Xq.q.q.^.].Y.i.#.H Y K F I F K ` Y T O.K K ",
"O.T D M S F K K H Y Y K O.U U #.x.Y.^.t.( >.Z.<XiXyXjXCXCXCXCXCXCXCXCXCXCXCXCXCXCXbX<Xq.t.x.Y.Y.Y.b.#.O.K K F Y I Y Y F Y Y Y F ",
"Y F S D K I I Y K T O.F Y Y U <.D.^.`.b.@. .k.3XrXhXkXCXCXCXCXCXCXCXCXCXCXCXCXCXCXbX*Xt.u.R.Y._.^.v...o.D K T T T T U I R I I I ",
"J K K Y I F K K Y O.Y F Y O.I ,.U.^.E.E.H. .k.<XrXhXkXBXCXCXCXCXCXCXCXCXCXCXCXCXbXfX=X} 1.x.K.Y.U.i.| O.Y %.%.Y T Y T U I N I Y ",
"I I Y Y K D K O.%.Y D D Y J J <.K.^.E.R.a. .h.3XrXqXkXvXCXCXCXCXCXCXCXCXCXCXBXCXvXfX*X>.2.' 1.s.,.&.O.%.+.K F D A S F K I I I N ",
"I U D D Y T T T K D D F T Y U %.u.D.K.s.$./ I.3XrXqXpXxXNXCXBXCXCXCXCXCXCXCXCXBXbXfX*X>.@.` #.@.+.+.+.O.D D S S K H K F F I I I ",
"I K U Y T O.Y D M D K I Y U Y %.#.2.2.' H ~ T.3X0XpX0XpXcXNXCXCXCXCXCXCXCXCXBXBXCXfX&X;.o.F Y I +.%.+.F n S S S Y I K F F F F I ",
"K Y T T Y I D M D K Y Y U Y +.=.` V H K Y U k.<X:XpXpXpXcXCXCXbXCXCXCXCXCXCXBXBXCXfX&X;.K F T T %.Y K J D K I Y K K F F F K I I ",
"I I I I F N D K Y Y I I Y +.+.+.S S K K I C k.,XrXsXxXyXmXNXCXbXCXCXbXCXCXCXCXCXCXbX=X;.&.R T *.T H n S K K K K Y Y Y I F I K I ",
"K F S I K I I Y Y I J F %.=.+.F S S K O.Y | l.*XrXjXqXgXmXCXCXbXbXCXbXCXCXCXCXCXCXbX=X} X.R *.T D S S F K K I I Y T I I F K K K ",
"F I I I Y I I I O.Y T %.+.%.O.A H S J U T &.J.,XiXjXgXhXnXBXCXCXCXCXCXCXCXCXCXCXCXbX=X} -.*.*.O.A S H F K Y I P K I F F F F Y Y ",
"I Y Y I F I Y I Y T =.%.O.Y F A H H O.U R | e.=XeXyXqXkXMXMXMXbXCXCXCXCXCXCXCXCXCXfX=X3.=.+.T D S V H H K I D N D I F Y Y O.K K ",
"I T %.T F I T +.%.%.+.O.K M A S S H J O.I &.J.-X4XsXqXqXvXCXCXCXCXNXCXCXCXCXCXCXCXfX&Xy.$.+.T m S H H H Y I P P I I K K K Y O.O.",
"I I K I Y T +.+.O.Y D A A S H D F H O.O.T | l.-XsX0XqXxXmXNXCXCXNXNXCXCXCXCXCXCXCXfX=X3.%.+.S S S H K Y Y Y P P I I K T +.+.O.A ",
"I P I T +.+.Y F D A A D D S K K Y +.O.K Y Z y.4X:X0XxXhXnXNXmXCXMXBXBXCXbXCXCXCXCXfX=Xt.%.G A H S S H Y Y Y I I I T *.%.K D D K ",
"P I T T Y I A M M D F K I F K Y U %.K S B C r.-X0XqXjXgXmXCXNXBXMXMXvXMXbXbXCXCXcXbX=X>._ A S S S H K Y I I U T T T T F A D F K ",
"I O.Y F M D D K Y K K K K K I Y +.U S H S _ j.1XqXnXnXhXzXlXmXCXMXMXvXbXbXfXCXbXCXbX,X] G S S S S F K Y U T O.+.+.K S m D Y K F ",
"T Y F D D K K K K T Y T I I I Y *.A S K K _ Z.#Xe 1 5 5 P.MXbXcXdXcXdXuXfXbXB.5 w 4 0 Q G H V m S Y K I U O.*.*.D M S F H Y Y K ",
"O.Y K K K K K F S Y +.+.I I T T Y m F H F o.W j ; . @   t m.Z.V.V.D.D.V.D.m.y   X   % g ( G H H H Y Y P Y =.*.Y D A S F K Y Y Y ",
"Y F S K Y I S S K I I I P P R *.N m F Y S %.g o ; + @ + o & a u i i i s a & o $ $ # % * p ' ` ` Y Y I P R =.+.A A S H K K K Y T "
};
