/* XPM */
static char *masjid[] = {
/* columns rows colors chars-per-pixel */
"64 64 191 2 ",
"   c #070605",
".  c #1D1608",
"X  c #2D210C",
"o  c #35280C",
"O  c #2D261C",
"+  c #382917",
"@  c #3E3216",
"#  c #2B2B2B",
"$  c #382B24",
"%  c #35332C",
"&  c #3A3937",
"*  c #412F0A",
"=  c #48360C",
"-  c #533D0C",
";  c #442D1D",
":  c #453518",
">  c #4A3625",
",  c #563A26",
"<  c #443C32",
"1  c #5E4D10",
"2  c #5C4719",
"3  c #6B4D0C",
"4  c #6E520B",
"5  c #77580B",
"6  c #644A19",
"7  c #625519",
"8  c #735610",
"9  c #726811",
"0  c #544322",
"q  c #49453D",
"w  c #5B4637",
"e  c #544933",
"r  c #684727",
"t  c #754C2D",
"y  c #675627",
"u  c #795329",
"i  c #6D4A32",
"p  c #754C31",
"a  c #6E5235",
"s  c #785534",
"d  c #76602E",
"f  c #776334",
"g  c #3F3F41",
"h  c #484848",
"j  c #504D45",
"k  c #55514C",
"l  c #5A5959",
"z  c #675D48",
"x  c #615D5C",
"c  c #7D6E49",
"v  c #7E704C",
"b  c #766951",
"n  c #5F6060",
"m  c #696867",
"M  c #76726D",
"N  c #787879",
"B  c #835E19",
"V  c #896709",
"C  c #956D0B",
"Z  c #8A7909",
"A  c #9D760A",
"S  c #8C6D1D",
"D  c #8A781A",
"F  c #987719",
"G  c #A57A09",
"H  c #A57C17",
"J  c #855A2B",
"K  c #855837",
"L  c #965C3C",
"P  c #8C6728",
"I  c #946928",
"U  c #8E7624",
"Y  c #967724",
"T  c #866534",
"R  c #9B673C",
"E  c #917235",
"W  c #A57B21",
"Q  c #A5693B",
"!  c #A7733E",
"~  c #856246",
"^  c #9B6A42",
"/  c #82734E",
"(  c #9E7246",
")  c #827556",
"_  c #A56A41",
"`  c #B46B43",
"'  c #A57345",
"]  c #B87746",
"[  c #83756C",
"{  c #C67949",
"}  c #D37D4E",
"|  c #918211",
" . c #9A8717",
".. c #AB8608",
"X. c #B6890C",
"o. c #AA980B",
"O. c #BA9609",
"+. c #A88417",
"@. c #B78A15",
"#. c #B19816",
"$. c #BCA909",
"%. c #AE8F29",
"&. c #B08822",
"*. c #B08837",
"=. c #BB973A",
"-. c #C38C05",
";. c #C8950B",
":. c #D59A07",
">. c #C99713",
",. c #D39B11",
"<. c #DAA30B",
"1. c #CCB00F",
"2. c #E3AA0A",
"3. c #EBB30C",
"4. c #FDBB03",
"5. c #EFB617",
"6. c #F6BA14",
"7. c #C69A31",
"8. c #CFAF2F",
"9. c #CAA132",
"0. c #FBBC28",
"q. c #DCC80A",
"w. c #DFCD1F",
"e. c #FEC603",
"r. c #FBD705",
"t. c #E4CD10",
"y. c #FCC11A",
"u. c #FEDE1B",
"i. c #FEE405",
"p. c #FDE519",
"a. c #FCC527",
"s. c #EAD829",
"d. c #FDD929",
"f. c #F5CF35",
"g. c #FAC935",
"h. c #FDE628",
"j. c #FCEA3A",
"k. c #A58C49",
"l. c #B9824C",
"z. c #AE9244",
"x. c #8B8679",
"c. c #C8824B",
"v. c #D3864D",
"b. c #D0974C",
"n. c #CD8A51",
"m. c #DA8B51",
"M. c #D99757",
"N. c #E78B53",
"B. c #F28E55",
"V. c #E59656",
"C. c #FD9A58",
"Z. c #D9B344",
"A. c #CCAF56",
"S. c #D1B259",
"D. c #FABE4C",
"F. c #E8A35A",
"G. c #FDA35A",
"H. c #FDB25E",
"J. c #C5AC64",
"K. c #CFAD67",
"L. c #FEAD61",
"P. c #FDB364",
"I. c #EDC146",
"U. c #FACA46",
"Y. c #F1CE59",
"T. c #FAE84B",
"R. c #FAEB53",
"E. c #E5C669",
"W. c #FAD86C",
"Q. c #FBEE71",
"!. c #898A8B",
"~. c #948F81",
"^. c #8E8F90",
"/. c #8F9091",
"(. c #979899",
"). c #9E9EA0",
"_. c #A5A5A6",
"`. c #B1AFAD",
"'. c #AEAFB1",
"]. c #B7B7B7",
"[. c #C0BFBF",
"{. c #BFC0BF",
"}. c #F9EA93",
"|. c #C0C0BF",
" X c #FCEDA2",
".X c #BFC0C0",
"XX c #C6C6C6",
"oX c #D0CFD0",
"OX c #D6D6D6",
"+X c #EDEEEE",
"@X c #FBFBFB",
/* pixels */
"G.G.G.G.G.G.G.C.C.G.C.G.G.C.C.G.C.G.G.H.P.G.C.B.C.B.B.C.C.C.C.C.C.C.C.C.C.G.C.G.G.G.C.G.G.G.G.G.C.G.G.G.P.P.C.B.C.C.C.G.C.G.G.G.",
"G.L.L.G.G.G.C.G.G.G.G.C.G.C.C.G.G.G.G.H.L.C.B.C.C.C.C.C.C.G.G.G.G.G.G.C.G.G.G.G.L.G.H.P.L.H.C.C.C.C.G.G.L.L.C.C.B.C.G.C.C.C.G.C.",
"L.C.C.C.C.C.C.C.G.G.G.G.G.G.C.C.C.G.P.L.C.C.B.C.C.C.C.G.G.C.G.G.G.G.C.C.G.H.H.H.L.L.G.C.G.C.C.C.G.C.G.H.L.C.B.C.C.C.C.C.C.C.G.C.",
"B.C.C.C.C.G.G.G.C.G.G.G.C.G.C.C.G.G.L.G.C.C.C.C.G.G.G.P.G.G.G.G.G.G.D.G.G.G.G.G.C.C.C.C.C.C.C.C.G.G.G.P.L.C.C.B.C.C.L.L.G.G.C.G.",
"B.C.C.G.G.C.G.G.G.C.C.G.G.C.C.G.G.G.G.C.C.C.G.C.C.G.G.H.G.C.C.G.G.G.G.C.C.C.C.C.C.C.C.C.C.C.G.C.G.G.H.L.C.C.C.C.C.G.G.G.G.C.G.G.",
"C.C.C.G.G.C.C.G.C.G.G.G.D.C.G.C.G.H.C.C.C.G.G.C.C.C.G.G.G.G.G.G.G.G.C.C.C.G.G.G.G.G.G.C.G.G.G.D.P.P.G.C.B.B.C.G.G.G.G.G.C.G.H.D.",
"C.G.L.G.C.C.C.G.G.G.D.G.C.C.G.C.G.G.C.C.G.G.G.G.G.G.C.C.C.G.G.G.C.G.G.G.G.G.C.G.G.G.G.G.G.H.G.G.G.C.C.B.C.C.C.G.G.G.G.G.G.G.H.H.",
"C.C.G.V.C.C.G.G.H.H.G.C.C.C.G.G.G.C.C.C.G.G.G.C.G.C.G.H.H.G.G.G.G.G.G.G.C.G.G.G.G.G.L.G.C.C.C.C.C.C.C.C.C.G.G.C.C.C.C.V.C.H.G.H.",
"G.C.' w 2 K V.P.H.C.C.B.C.G.G.G.G.C.G.G.0.C.G.G.G.G.G.H.G.G.C.C.C.G.G.C.G.C.G.G.C.C.C.C.C.C.C.C.C.C.C.G.C.G.G.C.B.Q 0 6 K F.P.H.",
"G.c.' %...>.E V.C.C.C.C.C.G.G.G.G.C.G.G.C.C.G.H.H.H.H.C.C.C.C.C.G.G.C.G.G.C.G.G.G.G.G.G.G.G.C.C.G.G.G.G.G.G.G.G.] ' %.o.@.! F.P.",
"C.G.] s T @.G L C.C.C.G.C.G.G.G.C.G.C.G.C.G.L.H.H.G.C.B.C.C.G.C.C.G.G.G.H.G.G.G.G.G.C.C.C.G.G.C.G.G.G.G.G.G.G.G.G.] s T @.A ^ L.",
"C.G.n.^ ^ H A K C.C.C.C.G.G.G.C.G.C.C.C.G.H.L.L.C.C.C.C.C.G.G.C.C.C.C.G.G.G.G.G.G.C.C.C.G.G.C.C.C.C.G.G.C.G.G.G.H.n.( ( W F K C.",
"G.m.' U  .,.I n.C.G.C.G.G.G.C.G.G.C.C.G.G.P.P.G.C.B.C.C.G.H.G.G.C.C.G.G.G.C.G.G.G.C.C.C.D.C.G.C.G.G.C.G.C.G.G.H.b.' Y A ,.I } C.",
"G.V.' y 1 J v.G.G.G.C.C.G.G.G.D.H.G.G.G.H.P.P.G.C.B.C.C.G.H.G.G.G.G.C.G.G.G.G.G.G.G.G.G.D.G.C.C.G.G.C.G.G.L.P.P.F.' y 6 T v.C.B.",
"G.G.N.] , { G.C.C.C.C.C.G.G.C.G.G.G.G.G.L.P.G.C.B.C.C.C.G.G.C.R ! G.G.L.G.G.H.C.G.G.G.G.G.G.G.G.G.G.G.H.L.P.P.L.P.M.L r } C.B.B.",
"G.G.C.N.P b.G.G.G.G.G.G.C.G.G.G.G.C.G.G.H.H.G.B.C.C.C.G.G.F.l.#.@.b.P.P.H.G.C.C.C.C.C.G.G.G.G.C.C.G.H.H.L.L.L.L.C.C.] L B.B.C.C.",
"G.C.C.y 9 t F.G.G.G.G.G.G.G.G.C.G.G.G.H.H.G.G.C.C.C.C.C.G.l. .r.1.U M.G.C.C.C.G.G.C.C.G.G.C.G.G.H.H.G.C.C.C.C.B.B.} 6 7 _ C.C.C.",
"G.G.C.r , w L.H.H.P.P.L.G.G.G.G.C.G.H.H.G.C.C.B.C.C.G.L.' ; Z | A 8 , } C.C.G.C.G.G.G.G.G.G.G.G.G.G.C.C.C.C.C.C.C.} ; > R C.C.G.",
"C.C.G.s l.s F.H.C.C.C.G.G.C.G.G.C.G.G.G.C.C.C.C.G.G.c.T D Z Z Z Z V V J L m.G.C.C.G.C.G.G.G.G.G.C.C.C.C.C.G.C.G.C.v.u ^ _ G.G.C.",
"G.G.G.s l.a G.C.C.C.C.C.C.G.G.C.G.G.C.C.C.C.C.C.C.c.U o.t.i.i.r.r.e.4.:.F I V.C.C.C.G.G.C.G.C.C.C.G.C.G.C.G.G.C.G.v.p ^ R G.C.G.",
"G.L.P.s l.a B.C.C.C.C.C.C.G.G.G.G.C.C.G.G.C.C.G.{ F q.i.i.i.r.e.e.4.4.4.4.;.J N.C.C.G.G.C.C.C.G.C.G.G.G.G.C.G.G.G.v.i ^ R G.C.G.",
"L.L.P.p ' p B.C.G.C.G.C.G.G.G.G.G.G.G.G.G.G.C.c.I w.p.i.i.r.e.e.4.4.4.4.4.4.;.I N.G.C.0.G.G.G.G.G.G.G.G.G.G.G.G.G.v.i ^ _ C.G.C.",
"L.P.L.p ` p B.C.G.G.G.G.C.G.G.P.H.H.G.C.G.C.c.F w.T.T.i.i.r.e.4.4.4.4.4.4.4.4.;.I m.C.C.G.G.G.G.H.H.H.P.H.H.H.G.G.n.t R Q G.C.C.",
"L.H.C.p ` p B.L.C.C.G.G.G.H.P.L.G.C.C.C.C.C.y 1.U.g.i.i.r.e.e.4.4.4.4.4.4.4.4.4.G L L.L.L.L.P.L.H.P.P.G.G.G.G.G.C.v.t R ( G.G.G.",
"H.L.C.p ` p C.G.C.C.G.G.H.G.G.C.] B.C.C.C.] | w.H.d.r.i.r.e.e.4.4.4.4.4.4.4.4.4.:.J M.P.P.L.N.v.C.L.G.C.C.C.C.C.C.v.s _ _ G.G.G.",
"G.{ p + , + i ] C.G.L.P.G.C.B.Q B R C.C.G.r $.d.U.u.i.r.e.e.4.4.4.4.4.4.4.4.4.4.4.V _ G.C.N.J J { C.C.C.B.C.C.C.R r + : > K V.G.",
"c.` %.;.O.X.X.F ] C.L.L.C.N.Q @ @ o I V.G.u $.p.D.f.i.r.e.e.4.4.4.4.4.4.4.4.4.4.4.V ` } } r X o > } B.C.C.G.C.R H X.O.O.#.=.' M.",
"L b.u.i.r.e.4.<.P n.L.C.{ r  .1.1.<.+.6 ! 0 $.i.U.W.p.r.e.e.4.4.4.4.4.4.4.4.4.4.4.V L J 6 H G G G B u m.G.G.] F 3.4.e.r.i.s.b.^ ",
"] _ 7.$.O.O.X.Y ] L.C.]  .q.r.i.r.e.4.2.F - o.r.i.R.R.i.r.e.4.4.4.4.4.4.4.4.4.4.2.V - G -.:.<.:.6.2.:.P M.G.G.( +.-.O.O.$.=.( K.",
"B.{ ; & k < + ] L.L.] D s.j.r.r.e.e.4.4.4.<.3 q.i.i.i.i.r.e.e.4.4.4.4.4.4.4.4.4.G 3 -.:.:.:.3.4.4.4.0.,.Y M.P.P.R O q k % i V.P.",
"C.C.K ^.XX!.i G.C.]  .s.Q.T.e.e.4.4.4.4.4.4.C  .i.i.i.i.i.r.r.e.4.4.4.4.4.6.4.2.B C :.:.:.2.3.4.4.4.0.W.9.I M.L.V.q _.oXm ] L.C.",
"C.C.K ^.XX!.i G.C.p 8.Q.R.r.e.4.4.4.4.4.4.4.<.o | t.i.i.r.r.r.q.e.4.4.3.5.0.<.1 - :.:.:.2.3.4.4.4.4.4.U.}.I ^ L.V.w _.XXm ` C.C.",
"C.G.K /.XX!.i G.*. .h. Xu.r.e.4.4.4.4.4.4.e.<.e !.y 7 y 7 y 7 7 7 2 y 0 y y z N 2 :.:.:.2.3.4.4.4.4.4.4. X8.J } } w '.XXm ` C.C.",
"C.G.s ^.XX^.i G.s o.h.}.d.e.4.4.4.4.4.6.5.6.<.e {._.)._._.)._._._.)._._.)._.`.).0 :.:.:.<.3.4.4.4.4.4.0.}.g.B { B., _.XXm ` C.B.",
"G.G.K (.XX^.i G.Q  .t.T.R.r.e.e.4.4.6.4.3.6.<.0 h k k h h l l h h k k k l k l g 2 >.,.,.,.2.6.4.4.4.4.Y.U.2.J } B., '.oXm ` C.B.",
"C.C.s /.XX^.i G.G.l.#.i.p.r.r.r.e.4.e.6.4.e.<.e '.{.].'._._._._.'._.'._.'.].].(.6 ,.:.:.:.:.2.2.3.4.4.6.6.H { C.} w '.XXm ` C.C.",
"C.C.K (.XX^.a L.H.F.0 9 | | Z Z V C V C V V 5 < {..X{.'.].].].].].].].].].].XX).o 8 5 5 5 5 5 5 5 V V V V R C.C.N.w `.XXm ` G.C.",
"v.K $ h l < $ T c.B., N !.^.!.!.!.!.!.!.!.^.N q {./.l h k k k k j k k k j l '.).g !.!.!.~.!.!.!.!.^.!.!.l K G.` t O j l & , R F.",
"R %.o.........G I { , k n n n n n x x x n n k & {.N 1 | G G 8   . C ..G A @ _.).# n x n l l n n n n n m g s ] C G ......o.o.*.R ",
"b.d.i.r.e.4.e.4.;.u # !.(./.^.!.!.^.!.!.!.!.N g {.M V e.e.;.c & h E <.e.4.2 _.).< !.!.!.!.^.!.^.!./.(.(.M $ I 2.e.4.e.e.r.i.f.n.",
"_ 9.1.1.;.-.;.;.Y ] w ]..X.X].].(.(.].].].].).h .XN V 4.>.b oXh !.{.T <.4.2 ).).h ].].].].`./._.].].[.oX/.s ! +.;.-.-.;.1.1.7.( ",
"c., % q q q $ : ] C.i '..X].].!.y y !.'.'.].(.h ].N V ;.) OX+Xh N @X].E :.2 ).).j '.].].`.M 6 z (.].].XX^.T G.Q + < q j e # p M.",
"G.R N XX].'.M K G.V.w ]..X].^.f <.<.f !.'.].).h {.N = ) OX@X@Xh !.@X@X].f : _.(.k '.'.'.M S 3.@.b (.].XX^.K C.B.w /.`.].XXk { C.",
"G.' !.XX].].N K G.C.w '..X^.a ,.4.4.<.f !.].(.h {.N k OX@X@XoX# k +X@X@X].& _.).h '.'.M I 3.4.4.X.b ).XX!.K C.B.w (.].].XXx { C.",
"P.' N oX].].N K G.F.w '.).a ;.6.4.e.6.,.d ^.).h {.M !.@X@XOX) X : x.+X@X@Xl _.(.j '.M S <.6.4.4.3.X.z ]./.K G.V.i (.].].XXz { C.",
"P.' N XX].].N K G.G.a '.!.8 ..J.a.a.K.+.5 N (.h {.N !.@XOX/ @.* 4 +.x.+X+Xl _.(.h '.k G Y E.e.U.k.X.0 './.K G.C.w (.].[.XXx } G.",
"P._ N XX].].N T G.C.w '.!.4 ,.Z.y.y.8.,.5 N ).h XXM !.@Xx.H ;.. = <.U _.@Xl _.).k '.k ..>.f.6.g.9.>.0 './.K G.V.w (.].].XXl n.G.",
"C.R !.XX].].N K G.F.w ].!.8 H A.a.a.J.+.5 N ).h .XM !.@XOX) +.* 8 H ~.+X+Xl ).(.h ].k F Y E.4.U.k.X.0 './.K G.C.w (.].].XXl c.G.",
"C.R [ oX].].N K L.C.w '.!.8 @.S.y.y.Z.>.5 N ).h {.M !.@X@X+Xb X : ~.+X@X@Xl ).).h '.k ..&.D.e.g.7.;.0 './.K L.V.i (.].].XXx c.G.",
"G._ N XX].].N T L.V.w ].!.8 -.A.y.y.S.@.8 N ).h {.N h oX@X@XOX# l @X@X@X_.% _.(.h '.k G &.Y.4.g.=.;.0 './.K L.L.j (.].].XXl { G.",
"C._ !..Xm _.N K L.B.w ].!.8 @.A.a.a.S.+.5 N _.h {.N - v oX@X@Xh N @X@X`.f @ _.).k '.k G Y E.6.U.z.X.0 '.^.K G.B.i )./.N |.x c.G.",
"{ M '.m m l _.M ` C.i '.!.8 >.Z.y.y.Z.>.5 N ).h {.N V >.v OX+Xh !.@X'.E <.1 _.(.h '.k G >.I.4.g.9.;.0 '.^.K C.L [ (.l n x.`.~ V.",
"Q m XXh N & _.m ^ V.w ].!.8 H J.g.a.K.H 8 N ).h {.N V 4.;./ XXh N `.P 2.4.2 ).).k ].k F Y E.4.U.k.+.0 './.s C.i ^./.h n m XXk m.",
"Q m XXk N h '.m _ C.i ].!.3 6.5.4.4.6.3.8 N ).h .XN V 4.4.:.v % k E 3.e.3.2 _.).h ].k ..6.6.4.6.6.2.0 ]./.K G.p ^./.h m m XXk N.",
"! q N # h # m g i ` $ M l * A G G G A A - h m # N h 1 A A G 3   . V A A C + m n # M % 4 G A A A A C o m l , ` > l l # g h N < N.",
"Q & m l l l l l l l l l l l l l l l l n l l l l l l l l l l l l l l l l l n l l l l l l l l l l l l l l l n n l l l l l l n > V.",
"Q m oX].].XX.X].].XXXX].].].XX.X].].XX.X].].XXXX].]..XXX].].].XXXX].].].oX|.].].XX.X].].XXXX].].|.XX].].].XX].].]..X.X]..X.Xk m.",
"Q m XX].].oX].].].XX.X].'.XXXX].].].XX.X].].XX.X].'.XXXX].].].XXXX].].].XX].].].XXXX].'..XXX].'.].oX].'.].XXXX].]..XXX].{..Xk M.",
"! M oX.X].oX].].].XX.X].].XXXX].]..XoX].].].XX].].].XX.X].]..XoXoX].].].XX{.].]..XXX].]..XoX].].].oX{.].].XXXX].].{.XX].].XXz N.",
"Q k (.!.!.(.!.!.!.(./.!.!.(./.!.!.!.(.!.!.!.(.^.!.!.(./.!.!./.(.(.!.!.!.(.^.!.!.^.(.!.!.!.(.!.!.!.(.^.!.!././.!.!.^.(.!.^.^.w M.",
"{ a a a p i i p i i i i r a i i i a i i i i i i i i i i i i a i a a a p a a a a z p i a p p i i i i i i i a i i i i a a a i K N.",
"G.G.H.G.C.C.C.B.C.C.C.C.C.C.C.L.L.L.C.C.C.C.C.G.G.C.G.G.G.L.L.L.L.P.L.H.H.H.P.P.P.P.L.L.G.B.B.C.C.C.C.C.G.G.G.G.G.L.L.L.L.C.C.C.",
"L.C.C.C.C.C.C.C.C.C.G.G.C.G.G.L.G.C.B.C.C.C.G.G.G.G.H.H.H.L.L.P.P.P.H.P.P.L.H.P.L.L.L.C.C.C.B.C.B.C.C.C.G.G.G.G.L.L.L.B.B.C.C.C.",
"C.C.C.C.C.G.G.C.G.C.G.C.G.G.G.L.G.B.C.C.G.C.G.G.G.G.H.H.H.L.L.L.L.L.L.G.H.L.G.C.C.C.C.B.C.B.C.B.C.C.G.G.G.G.G.P.P.G.C.B.C.C.L.C."
};
