/* XPM */
static char *b043e9ec39ca4dc896da100a60b7f0dcKBpWUrY7ohY4EBT4[] = {
/* columns rows colors chars-per-pixel */
"64 64 164 2 ",
"   c #000000",
".  c #060A0A",
"X  c #0A0A0A",
"o  c #0B0F10",
"O  c #0C1212",
"+  c #0E1718",
"@  c #0E1819",
"#  c #141414",
"$  c #141A1B",
"%  c #191A1A",
"&  c #242424",
"*  c #232A2A",
"=  c #2C2C2C",
"-  c #223031",
";  c #2E3030",
":  c #243A3C",
">  c #2E3B3C",
",  c #343434",
"<  c #373939",
"1  c #3D3D3D",
"2  c #2B484A",
"3  c #3F4444",
"4  c #394748",
"5  c #31484A",
"6  c #3F4E4F",
"7  c #454545",
"8  c #464748",
"9  c #474949",
"0  c #494C4D",
"q  c #414F50",
"w  c #425051",
"e  c #4C5354",
"r  c #4E5E5F",
"t  c #525454",
"y  c #515758",
"u  c #545A5A",
"i  c #5B5C5B",
"p  c #545F60",
"a  c #536162",
"s  c #556B6C",
"d  c #596B6C",
"f  c #426F72",
"g  c #447072",
"h  c #467B7C",
"j  c #4E7A7D",
"k  c #557071",
"l  c #5D7475",
"z  c #51797B",
"x  c #5D7C7E",
"c  c #616161",
"v  c #636E6F",
"b  c #6A6A6A",
"n  c #627778",
"m  c #657879",
"M  c #6B7B7B",
"N  c #747474",
"B  c #7C7C7C",
"V  c #997F59",
"C  c #998464",
"Z  c #A09075",
"A  c #4C888B",
"S  c #518D8F",
"D  c #5D8A8B",
"F  c #579195",
"G  c #599395",
"H  c #6B8385",
"J  c #628C8D",
"K  c #798385",
"L  c #638E91",
"P  c #639395",
"I  c #6B9294",
"U  c #6E9A9C",
"Y  c #729597",
"T  c #799799",
"R  c #749B9D",
"E  c #7E999A",
"W  c #679EA0",
"Q  c #66A1A4",
"!  c #6CA3A5",
"~  c #65A8AA",
"^  c #72A5A7",
"/  c #7CA3A6",
"(  c #71A7AA",
")  c #75A9AC",
"_  c #7BACAE",
"`  c #7EAFB2",
"'  c #7DB7B9",
"]  c #7EB9BD",
"[  c #74BEC1",
"{  c #75C2C4",
"}  c #7BC3C6",
"|  c #76C5CA",
" . c #7BC5CA",
".. c #7BCDD1",
"X. c #848484",
"o. c #808889",
"O. c #8A8A8A",
"+. c #839C9D",
"@. c #939393",
"#. c #9D9D9D",
"$. c #AAA089",
"%. c #B5AD97",
"&. c #82A4A7",
"*. c #8CA7A9",
"=. c #97A7A6",
"-. c #9DA5A1",
";. c #84AFB2",
":. c #83B1B5",
">. c #8BB3B5",
",. c #82B6B9",
"<. c #88B4B8",
"1. c #86BBBD",
"2. c #8DBBBE",
"3. c #90B4B6",
"4. c #9CB2B3",
"5. c #95B6B8",
"6. c #9BBABC",
"7. c #A4A4A4",
"8. c #ACACAC",
"9. c #BDBBAB",
"0. c #A2B4B4",
"q. c #B3B3B3",
"w. c #B4BBB3",
"e. c #B9C3BE",
"r. c #C7C6B7",
"t. c #81C4C7",
"y. c #8CC2C5",
"u. c #80C7CB",
"i. c #86C9CD",
"p. c #8BCBCD",
"a. c #93C2C5",
"s. c #9CC5C6",
"d. c #8CCDD2",
"f. c #91CDD0",
"g. c #94D2D5",
"h. c #9CD2D4",
"j. c #97D4D9",
"k. c #9FD5D8",
"l. c #9ED8DD",
"z. c #A6C3C3",
"x. c #ADC3C4",
"c. c #A1C7C9",
"v. c #A6CBCC",
"b. c #B3C6C4",
"n. c #A1D0D3",
"m. c #A3D7DB",
"M. c #ABD9DB",
"N. c #B5D5D6",
"B. c #BDD6D7",
"V. c #B5DFE1",
"C. c #BCE3E5",
"Z. c #C5CCC3",
"A. c #CCD2C6",
"S. c #CAD6D0",
"D. c #C1D9D8",
"F. c #D8E1D6",
"G. c #D9E2DB",
"H. c #C4E6E7",
"J. c #C6EBEC",
"K. c #CFECED",
"L. c #DEECE5",
"P. c #D4EFEE",
"I. c #DAEEEA",
"U. c #D9F0F1",
/* pixels */
"V V V Z A.F.F.F.F.F.F.F.F.F.F.F.F.F.F.F.F.F.F.G.G.F.F.w.w.w.w.w.Z.w.w.w.F.F.F.F.F.F.F.F.F.F.F.F.F.F.F.F.F.F.F.F.F.F.F.r.C V V V ",
"V V C $.F.I.I.P.P.P.P.P.K.K.b.b.b.b.D.b.D.B.b.D.b.0.=.b.e.b.D.b.e.b.P.K.b.b.x.K.P.P.P.P.P.I.P.P.P.P.P.P.K.P.P.P.P.P.U.A.Z C V V ",
"V Z r.A.L.P.C.M.g.g.m.6.T I :.6.c._ 1.c.5.1.` s.+.T I e e e 0 0 u e e 0 E 6.T 1.<.5.s._ a.M.M.d.f.M.M.h.f.M.V.k.d.M.U.F.A.9.C V ",
"C $.L.U.P.K.M.:.! D I T I D 0 e e 0 r 0 u r 0 a e 9 7 e y e k y e e J J e e e D U T ,.[ } a.;.Q ! :.>.^ W _ <._ W f.K.U.I.F.Z C ",
"9.A.I.K.C.5.I I I I I e 7 7 e e d e n l e n e v 7 y y 7 7 7 7 7 7 7 7 7 7 0 9 r e 0 0 e p U I R _ ) ) ` ) ) ( u.` ` f.M.P.G.r.9.",
"L.I.I.K.+.H x 0 e 7 7 7 e e 7 7 7 7 7 7 7 7 7 7 7 7 7 9 7 7 7 7 7 7 7 7 7 7 7 7 < = a &.Y < 0 0 0 9 0 0 0 0 7 q e Y Q _ K.I.I.L.",
"I.K.H.6.m e 8 8 9 e e 7 7 7 7 7 7 7 7 7 7 7 8 7 7 7 7 7 7 7 7 7 7 7 7 7 7 7 7 = , < . 7 7 , 9 e e e 1 e e e 1 L e e i._ >.M.K.L.",
"L.H.M.;.8 8 8 7 7 7 7 1 , 1 , < 1 < 7 7 9 7 8 7 7 7 7 7 7 7 7 7 7 9 7 7 7 7 , = X X 7 7 , 7 7 7 7 7 7 7 7 7 7 7 7 7 e ;.J u.J.L.",
"I.H.f.e 7 u.7 7 7 ; = 1 , 1 1 , , , 7 7 7 7 7 7 7 7 7 7 7 7 7 7 7 7 7 7 7 7 1   7 %   7 X 7 , 7 7 7 7 7 7 7 7 7 7 7 8 8 ( _ J.L.",
"I.C.[ e 0 7 7 , , = & # X O   X # . < 1 , 7 7 7 7 7 7 7 7 7 7 7 7 7 7 0 7 7 X # 7       , . 7 7 7 7 7 7 7 7 7 7 7 7 7 7 e 3.P.L.",
"I.C.t.e 7 7 , = =     #   X X X X X 7 , , 7 7 7 7 7 1 # X 1 7 7 7 7 7 7 7 7 # ,           X 7 7 7 7 7 7 7 7 7 7 7 8 7 7 7 m.K.L.",
"I.H.m.7 7 7 7 . X X                 X . < ; 1 1 7 1 1 7 7 1             = = 1             < , , 7 7 7 7 7 7 7 7 7 7 7 7 e } J.L.",
"I.J.y 7 7 7 . # .                     . O G [                                             7 , , 7 7 7 7 , 7 7 7 7 7 7 7 ! u.J.L.",
"I.V.e 0 7 7 7 X                         & 2.j. .      S A h                               + O 6 < 7 , 7 = 7 7 7 7 7 7 7 :.M.K.L.",
"I.C.e e 7 7 7                       &   < *.n.y.F f g . . .                 X                           . 1 7 , 7 7 7 7 e M.K.L.",
"I.H.y 0 7 7 , #                   # = o $ 4 / T ,.+ O X . O           % # .                               1 7 = 7 7 7 7 e p.J.L.",
"I.H.y e 7 . # , 7                 . #   7.8.K w.O o #               X X # & #     X                       1 X = , 7 7 7 ! u.J.L.",
"I.C.e 0 7 7 X X                 .   <       $ ; s o                   # . #                                   . = 7 7 7 I h.J.L.",
"I.C.w e 7 7 7 #                   q.          # ;                   . X #   ,                                   = 7 7 7 T M.P.L.",
"I.C.e e 7 7 7 7 X             # 7.              ; X.                X 7   =               .   $ l.              & 7 7 7 ' _ J.L.",
"I.H.y :.7 7 7 7 X ;           # B             # % # 1             & <                   > $   % % .             = 7 7 7 e I J.L.",
"I.C.y _ 7 7 7 7 X X           O O 1         O.#.q.% .       #   0 %                 O d.5 5 j.C.. -             1 7 7 7 7 _ J.L.",
"I.V.e ! y 7 7 7 7 7 X         O #.%     . & q.q.q.c *.V < X                         > @     } k.. x             7 7 7 7 7 3.x.L.",
"I.C.e t.e 7 7 7 7 7 7 =       #.q.% # X O.#   . < q.8 O.7 t t 0                   $ $ @     | g.  D             7 7 7 7 y e N.L.",
"I.H.m.y 7 7 7 7 7 7 7 3     # O.q.q.q.O.q.# # q.q.q.q.q.8.@.7                   X < .         ..X ~             7 7 7 7 7 7 z.L.",
"I.H.j.e e 7 7 7 7 7 7 1   i X.# N q.q.q.& #.#.q.q.q.q.q.O.b   O.                &             ..2         =     7 7 7 7 7 9 4.L.",
"I.V.{  .0 7 3 7 7 7 7 < 1 = #.#.N N q.% % o.B 1 q.q.q.O.b # . X                                                 7 7 7 7 7 0 0.L.",
"I.V.[  .7 7 7 7 7 7 i 7 % q.N   q.B 7.  B 7.= = , q.q.q.#   q.                #.X                           #   7 7 7 7 7 7 x.e.",
"I.H.h.d e 7 7 7 7 7 8 #.8.    q.q.q.# O.N N #.8.@.@.q.# X q.            .   N X                             1 X 7 7 7 7 7 7 y S.",
"L.H.m.y 7 7 7 7 7 7 7.N   w.q.q.q.q.q.N     X X 7.q.q.q.#.            X   #.<                               = O 7 7 7 7 7 7 9 e.",
"I.C.t.7 7 7 7 7 7 7 &   q.q.q.q.q.q.#.        1 O.  i #.            X   = X                                 1   1 7 7 7 7 7 0 S.",
"I.V.[ t e 7 7 7 7 = , w.q.q.q.q.q.N %       =     7 q.O.#         7   # #                                     = 7 7 7 7 7 7 0 e.",
"I.H.f.p 7 7 7 7 1 = = 7.q.q.q.q.B =             7 q.% X q.q.    . & , ,   = $ < % &                           % , 7 7 7 7 7 9 S.",
"I.H.3.8 0 7 7 7 , #.B O . q.q.8.,   N N       7 @.7 q.q.#       N , = X 1 , &   X X                           = , 7 7 7 7 7 7 -.",
"I.C.e 7 ) 7 7 7 # X X 7.7.8.V - X #.#.      = O.7 7 O.q.            X 1 7 7.O.7.# # X                 &       . & 7 7 7 7 7 7 7.",
"I.V.0 7 7 7 7 7 X X ; ,   c % 7.8.N       = .   = O.O.X.%         = = #.8.7.O.@.  X               & , . X       & i t 7 7 7 7 e.",
"I.C.e 8 7 7 7 7 7   , , 7 7 7 = & X           = = ,   & = O.        q.N 7.q.q.q.q.q.O           , X B   =     = & s 7 7 7 7 7 u ",
"I.H.0 7 7 7 7 7 .   , 7 7 7 7 < % X               X   = #         #.    q.q.q.q.q.q.q.N b X.#   X X   X ,   , X 3 V O.7 c t 7 7 ",
"I.H.e 7 7 7 7 # , ; 1 7 7 7 7 , .       . S             . .           q.q.w.q.q.#.b b O.q.O.q.q.q.q.# <       # O B 7 7 c 7 7 t ",
"I.y W 7 7 7 7 X X = 1 7 7 7 7 X   #     O                 :         q.q.q.q.#.N b 0 O.# X q.O.O.q.q.1           . #.w.7.O.c t e.",
"I.u ! 9 7 7 7 7 7 ; 1 7 7 7 7 X 7                                 7.N q.q.O.N b &     X O.O.O.q.q.q.N           . q.q.q.7.@.7 e.",
"I.i k.9 7 1 7 7 7 8 # 7 7 7 7 t                                 #.    #.#.#.1 X     1     # # O.O.# ,           1 q.q.q.q.@.7 i ",
"I.H.m 1 7 7 7 7 7 1 # 7 7 b c ,                                     #.#.7.X   #             O # @.X O.#       O.q.q.q.q.7.7 8 i ",
"I.C.8 3 7 $ 7 7 1 7 % i N t X & =                                       X   #.                # < < 7.X .   O.X % q.q.c t 7 t L.",
"P.C.y % 7 7 7 7 7 7 t b t q.# 1 X .                                                         # ,   B N     & 1 # # q.@.c 7 7 p L.",
"P.H.* e 7   7 # 7 t , 7.q.1   q.. X   #                                                   X.7 7.q.#.    # % 7 1 < 8.t 7.8.O.i L.",
"I.H.M u       7 # 7 q.#.  q.#.q.q.= c                                     .             . 1 q.N #.  #   o , 7 7 7 c 7 7.7.0 t L.",
"I.C.e           # 7..   #.q.q.O.q.q.N                                       ,         X O.#   # = B       7 7 7 7 7 7 8 8 y J.L.",
"I.M.8 9       7 7 7 O #.#.O.1 q.q.O.                                      < , X #.O.= X   . % q.q.N     X 7 7 7 7 7 7 7 9 y K.L.",
"L.0 9 0 7   7 1 7 7 q.q.= O.q.#   %                                           #.q.7 1 q.q.q.q.q.N     # u.7 7 7 7 7 7 e e y J.L.",
"L.H.0 % % # 7 7 7 7.7.1 q.%   O.X                                 #         q.q.q.q.q.q.q.q.q.  #   9 / 7 7 7 7 7 7 e e e t.H.L.",
"L.C.0 7 7 1 7 # < 9 L #.#         . N                                     = 7.q.q.q.q.q.q.q.O.#   . ,.# # 7 7 7 7 7 _ e e f.J.L.",
"I.C.e 7 7 7 7 7 7 8 7.#.          ,                         X z j :     #.#.  O q.q.q.q.q.B #   N O.7 X X 7 7 7 3 D e 8 e M.K.I.",
"I.M ^ 7 7 7 7 7 7 X   . e             O                 X & = X   . 7 1 1 1 7.8.q.#.= # #.8.8.8.N     % 7 7 7 3 % e 8 e g.l.K.L.",
"I.u >.n 7 7 7 7 7 7 % X           .         %           1 7 # # 1 1 < 1 U P r X , = #.q.#.  .   X 7 7 7 7 7 1 $   e t g.{ t.H.L.",
"L.y m.e 3 7 7 7 7 7 7 X # # X       . # 1 % X     . 1 , #   X 7 7 7 7 7 7 7 7 7 1 .       . # X # 7 7 7 7 1 # ] e e g.f.} i.H.L.",
"P.V.e e e 7 7 7 7 7 7 7 7 X X   # % 7 7 7 7 7 1 1 # X   X 7 7 7 7 7 7 7 7 7 7 7 7 7 7 , , X     . 7 7 7 7 O 1 9 r d.} t.g.M.K.L.",
"I.C.e e 7 e 7 7 7 7 7 7 7 7 7 , 7 X X 7 7 7 7 7 7 7 7 7 7 7 7 7 7 7 7 7 7 7 7 7 7 7 7 7 7 7 7 7 7 7 7 7 1 1 e i.l.g.{  .m.M.K.L.",
"I.K.H.M.e 7 7 7 7 7 7 7 7 7 7 7 7 7 7 7 7 7 7 7 7 7 7 7 7 7 7 7 7 7 7 7 7 7 7 7 7 7 7 7 7 7 7 7 7 7 7 e 7 e j.d.} i.g.m.H.K.P.L.",
"L.I.I.H.t.} :.t 7 7 7 7 7 0 7 7 7 7 7 7 7 7 7 7 9 7 7 7 7 7 7 7 7 7 7 7 7 7 7 7 7 7 7 9 7 7 7 7 7 7 e 9 e d.l.p.[ u.M.M.P.I.L.F.",
"$.9.I.K.V.M.f.t.d.` ] e 7 7 7 7 7 9 7 7 7 7 7 7 7 7 7 7 7 7 7 7 7 7 7 7 7 7 7 7 7 7 7 7 9 7 8 7 8 0 e 9 e d. .i.f.m.H.J.U.F.%.$.",
"V $.F.I.U.J.t.[ j.m.i.[ p.m.e 9 7 7 7 9 0 h.>.^ e 7 9 0 k ( <.e 7 9 9 7 7 7 7 7 7 0 ' >.v 9 9 9 9 9 9 0 y p.[ i.k.V.P.I.I.F.Z C ",
"V Z %.9.G.P.M.m.C.C.M.M.V.C.V.M.5.6.e 7 9 0 0 y M.V.C.C.M.M.C.C.M.M.C.C.M.M.v.0.v 9 9 9 y M.M.C.C.M.M.V.C.M.M.M.C.K.I.F.9.%.C V ",
"V V V Z G.U.U.U.U.U.U.U.U.I.I.P.U.U.U.U.U.U.U.U.U.U.I.I.U.U.U.U.U.U.U.U.U.U.U.U.U.U.U.U.U.U.U.U.U.U.U.U.U.U.U.U.I.U.I.A.Z V V V "
};
