/* XPM */
static char *sable[] = {
/* columns rows colors chars-per-pixel */
"64 64 6 1 ",
"  c #FD9957",
". c #FDA459",
"X c #FDB25E",
"o c #FEAD60",
"O c #FDB464",
"+ c #FDBD71",
/* pixels */
"     ...O.  . ...  ...... ..... ......... .......XX...      ....",
".....XoX.  . ...   ..... . .......... ..............       ..   ",
" ...+o      .... . .... ...XXX........ ........           ...   ",
".X.XO      ... ..... ...XXX..      .. . ...         ...   ...  .",
"XX      . ..X...... ...XXX        ..  ... ...... .. ............",
"X.        ... .   ...XOXX.     ..   ..... ...  ....  . ....... .",
".      .. ... .   . .XX.      ...  .........    ..   ...........",
"        .... ... . .oXXX      X. ............  .. .  . .......XX",
"  .....   ....X. ...XXO.    ..X.. .... ...... ..X.........XXXXXX",
". .   .  ..  XX.....XX.     .... .......X.... ..X..  .....XXXXXX",
"........ ..........XXX.    .........XX.X.. . . .......X..XXXXXX.",
". ... ... .........XXX.    .........XXX    ....... ....XXX....  ",
".....X........ ....X.       ......XXX.   . .. .......XX.        ",
"...XXXXXX........XXX.       . . .X...   . . ..........          ",
"XXXX........... .X.      . .....XX.     .. .   ......      .    ",
"XXX..    .   . ..     . . . ...XXX.      .. .... ...   .   ..   ",
"XX        ...  ..  .. .. ... ....      .  .  .....   .......  ..",
"..      . ...... ... . ...  . ...     ....    ...    .... ..... ",
".    .   .................    ...    . . ..    ................ ",
"     .  .. ..XX.X....   .......X.     .    .... .....XXXXXX.....",
"    .. ....XXX.        .. . ...XX    ..   .. .X...XXXXOOXXX.XX..",
"       ...XX...      ......  .XO.   .. ... ..XO+XXX.X.X...      ",
"   ..  .XX. .      ..  ... ..XXX    .. ......Oo.X               ",
"  .. ...XX      . .. .. ....XXX.    . .. ..XXX.               ..",
"   ... .X      ..........XXX.X.       ....XO.             .. .. ",
"  .......    ..........XXXXX           ...o.       .............",
".  .....    . . .....XX.X.X.        . . ...    ..  .......X...XX",
".......    .. ......X..               ...o     ...oooOXoXXXXXXXX",
".......   . ... ......           .........  . .oXXXXoXXO+Oo+OXXX",
".  ...  .. .   ...            ... . . . .  ...ooXXXXoOXX.oooXXo.",
"......    .   ...      .  .  ...... . .    ..oooXXXOO.O         ",
". .........  ....  . ...  ... .X.    . ......XXXoX.o            ",
" . ..  .....   ................X.... .. . .XOOXX.               ",
" ...................XXXXXX.............  ..O+OXX.               ",
".. .. ....... ...XXXXX..X............. ...oXXX.                 ",
".....Xo...  ...oXXX.X.  ..  .... ....  ....oX..                 ",
" ..Xo..    ...Xo...      . .....X....  ...XX                    ",
"...Xo     ...XX..       . .........    ..XXX                    ",
"..XX     . ..X      .. ..  ......     ...X                      ",
"X+X    .....X        ..... ..       ... ...                     ",
"XO      ...X.     ................... ....X.      ..   .o   o...",
"O.      . ..    . ..XXX....... .. . . ...XX.     .  . .  o ooooo",
".       ....   ..XXXXX.. .... . .   ....XX..     ... ...oooo. ..",
"        ..X    ..XXX.        .....  ...X.X.     ...X ...o       ",
"     . ....    oo   o     ....... . ...XXX       .XX. .o        ",
"     .....   ..O.       ... ......... .XX.      ......X         ",
"    . oo..   .oo        ......XX.......XXX      .... oo   . ..  ",
"    ..... ....oo    .. .....XX.... ....XXX      ...  o    . .   ",
"    .. .. . ..X.      ...XXX. .   ...XX.      .. ..  .. .. ... .",
"     ...... ..O.      ..X...     . ..XX.     . ............. ...",
".. ..... ....X+.     ...       .......       .. ..X. .... ...X.X",
" . .oo. .. ..XX   ... ..    . .. ...       . .... .. ......XXX..",
"....o.   ....X.    ....    .. . ...        . ............X...   ",
" ooo.   ....XO.     ...    ... .     ..   .....o..... XXX..     ",
"Oo.    ... .oo.   .....  .   ....  .. .......X..  . ..XXX.      ",
"..     .. .oO.   .....   .... . . ... ... ..X.   . ...XX.       ",
"     . ...XOO.    .... ....    ..... . ...Xo.    .....        . ",
"   ... ....Xo    .. .  .  ..  .. . .....X.oX   ....XX         ..",
" .. ... ..XX     ......  .. ...  . ....X..      ..XXX.       ...",
" ...... XX+X    .....  .  ..XX ......XX.      ...XXXX       ....",
" . .  OOo        .......   ..X.........     .  .XXXX      .  .  ",
"....o OOo       .... ..... . ........       ...XXXO.      . .   ",
"..X.++oo        ............ ....        .....XXXXX.      ... . ",
".XXXOo          ..X.XX.    .. ......... . ...XO.XO.      . ....."
};
